<svg version="1.1" id="Layer_1" xmlns="http://www.w3.org/2000/svg" xmlns:xlink="http://www.w3.org/1999/xlink" x="0px" y="0px"
	 width="100%" viewBox="0 0 430 250" enable-background="new 0 0 430 250" xml:space="preserve">
<path fill="#67CAEE" opacity="1.000000" stroke="none" 
	d="
M315.000000,251.000000 
	C210.000031,251.000000 105.500076,251.000000 1.000084,251.000000 
	C1.000056,167.666733 1.000056,84.333466 1.000028,1.000151 
	C144.333206,1.000101 287.666412,1.000101 430.999725,1.000050 
	C430.999817,84.333183 430.999817,167.666367 430.999908,250.999786 
	C392.500000,251.000000 354.000000,251.000000 315.000000,251.000000 
M171.895035,70.995171 
	C174.207870,70.999031 176.520691,71.002884 178.980652,71.932961 
	C178.980652,107.552177 178.980652,143.171402 178.980652,179.000214 
	C176.413986,179.000214 174.397522,178.758728 172.477509,179.084900 
	C171.192108,179.303299 170.043655,180.327789 167.964584,180.995453 
	C160.931564,181.039917 160.688263,181.326630 160.985443,187.184464 
	C161.298737,193.359589 166.010117,190.173874 169.014175,191.868622 
	C169.461044,192.236954 169.906967,192.926178 170.354919,192.927505 
	C190.582214,192.987518 210.809769,193.007507 231.036728,192.910110 
	C231.749741,192.906693 232.456802,191.666916 234.035553,191.001678 
	C241.036041,190.961151 241.320068,190.640839 241.012741,184.816910 
	C240.688385,178.670319 235.999939,181.809052 232.988480,180.145432 
	C229.793076,179.564499 226.597672,178.983566 223.359528,178.394852 
	C223.359528,163.395477 223.359528,148.271149 223.359528,132.999954 
	C232.162643,132.999954 240.608688,133.089737 249.049011,132.910416 
	C250.434555,132.880997 251.794952,131.668182 254.032654,131.000992 
	C260.986481,130.967514 260.986481,130.967514 261.910400,123.019547 
	C272.715912,122.951584 272.714874,122.951553 273.023163,111.969498 
	C273.032257,111.646057 273.115692,111.324707 274.030426,110.999840 
	C280.981506,110.963982 280.981506,110.963982 281.863403,102.986038 
	C282.202972,102.705292 282.835510,102.428360 282.839233,102.143242 
	C282.929413,95.226288 283.022247,88.307228 282.899323,81.392365 
	C282.884003,80.528389 281.663940,79.685822 281.001068,77.966263 
	C281.033478,71.066338 281.033478,71.066475 288.120819,70.977844 
	C288.451660,70.973701 288.782410,70.963074 289.816284,71.365341 
	C292.714783,72.171951 295.613312,72.978561 298.833252,73.874619 
	C298.833252,105.963318 298.833252,138.480240 297.967651,170.998505 
	C291.012207,171.032181 291.012207,171.032181 290.089417,178.980209 
	C288.257782,178.986816 286.401215,179.189560 284.599457,178.960922 
	C280.274292,178.412048 278.303680,179.995178 278.974487,184.483475 
	C279.144897,185.623627 279.132874,186.829132 278.975983,187.973236 
	C278.428772,191.963715 280.106995,193.092316 284.053711,193.078659 
	C322.019348,192.947266 359.985779,192.947144 397.951416,193.078720 
	C401.904083,193.092407 403.144867,191.953888 403.086273,187.969086 
	C402.905334,175.654144 403.111084,163.333496 404.036133,151.009796 
	C411.080078,150.964142 411.306213,150.691101 411.014435,144.815826 
	C410.707123,138.627426 405.988312,141.829788 402.987335,140.134613 
	C399.543396,139.756088 396.101959,139.352936 392.654785,139.006622 
	C389.766571,138.716476 388.907532,140.237228 388.966553,142.920639 
	C389.082428,148.189301 389.000610,153.462311 389.000610,158.543686 
	C385.543182,158.999435 381.544373,158.379257 380.055664,160.026932 
	C378.373688,161.888504 378.947083,165.787872 378.558746,168.659821 
	C366.621979,168.659821 354.902069,168.659821 343.166595,168.659821 
	C343.166595,135.881058 343.166595,103.442406 344.032379,71.001907 
	C350.985718,70.967743 350.985718,70.967743 351.582794,62.915581 
	C352.110840,62.278664 352.638916,61.641747 354.035889,61.002811 
	C361.035797,60.961578 361.320038,60.640980 361.012726,54.816959 
	C360.688354,48.670303 356.000000,51.808994 352.780487,50.259281 
	C351.767639,49.839966 350.755920,49.057941 349.741730,49.054703 
	C327.774017,48.984425 305.805420,48.935715 283.839264,49.135651 
	C282.234100,49.150261 279.390625,50.973366 279.284546,52.150513 
	C278.958130,55.771938 279.682037,59.488041 279.998596,64.017288 
	C281.094452,69.864197 277.585693,70.450966 272.880157,69.397392 
	C272.255035,69.209648 271.629883,69.021912 271.001923,67.968033 
	C270.966064,61.017975 270.966064,61.017975 262.987762,60.141705 
	C258.994232,59.705254 255.000671,59.268803 251.004410,57.964973 
	C250.964294,50.954285 250.964294,50.954041 243.884567,51.023415 
	C243.553635,51.026657 243.222809,51.041313 242.181671,50.631287 
	C241.190399,50.087715 240.201019,49.073662 239.207581,49.069668 
	C216.794495,48.979664 194.380859,48.973602 171.967987,49.084938 
	C170.919785,49.090149 169.877716,50.328407 167.964249,50.995632 
	C161.003540,51.036282 161.003128,51.036282 160.999634,58.027683 
	C160.999146,59.013786 161.004837,59.999893 161.003967,61.885975 
	C160.995895,71.020226 160.995895,71.020279 170.047440,70.993065 
	C170.374191,70.992081 170.700943,70.988518 171.895035,70.995171 
M37.964279,180.996414 
	C30.932808,181.040207 30.688765,181.327469 30.986172,187.184311 
	C31.299677,193.358261 36.009613,190.173965 39.014042,191.867432 
	C39.960339,192.244720 40.905975,192.949814 41.853024,192.951706 
	C70.930450,193.010101 100.008118,193.026535 129.085236,192.914886 
	C130.448135,192.909668 131.806290,191.667938 134.032288,191.001068 
	C140.989044,190.968384 140.989044,190.968384 141.909866,183.019577 
	C152.712204,182.951508 152.711166,182.951477 153.023499,171.976700 
	C153.032700,171.653427 153.117294,171.332321 154.032928,171.006119 
	C160.982697,170.968506 160.982697,170.968506 161.870102,162.985779 
	C162.207916,162.704102 162.837524,162.425842 162.840881,162.140228 
	C162.925995,154.907684 162.988022,147.673782 162.890884,140.442322 
	C162.883560,139.897156 161.660553,139.368317 161.001480,137.966370 
	C160.968262,131.011551 160.968262,131.011551 153.011353,130.295502 
	C152.342667,129.808151 151.673996,129.320786 151.002686,127.967545 
	C150.967194,121.015388 150.967194,121.015388 143.019669,120.100098 
	C143.019669,117.833961 143.019669,115.567833 143.019669,113.000252 
	C144.484741,113.000252 145.458054,113.008537 146.431183,112.998917 
	C152.996613,112.933998 152.998444,112.932770 152.999573,106.521866 
	C153.001251,97.050545 153.000015,87.579224 153.000000,78.107903 
	C153.000000,69.290314 152.999817,69.294357 144.080078,68.909523 
	C143.807190,68.897758 143.546509,68.602676 142.839691,68.170158 
	C142.839691,65.365311 142.839691,62.296078 142.839691,58.833370 
	C138.598862,58.833370 134.800995,58.833370 131.001572,57.966026 
	C130.963120,50.960297 130.963120,50.960075 123.882217,51.024265 
	C123.551369,51.027264 123.220619,51.040585 122.180161,50.629326 
	C121.188110,50.086407 120.197647,49.072685 119.203773,49.069328 
	C93.458870,48.982342 67.713516,48.977032 41.968769,49.084682 
	C40.921028,49.089058 39.878456,50.329300 37.964348,50.996807 
	C30.982046,51.039856 30.314938,51.669746 31.028925,57.681408 
	C31.694235,63.283245 36.122665,60.154484 39.084824,61.588009 
	C39.717876,62.114571 40.350929,62.641136 40.989471,64.033684 
	C41.029922,70.982727 41.029922,70.982727 48.980671,71.929848 
	C48.980671,107.550346 48.980671,143.170837 48.980671,179.000214 
	C46.413109,179.000214 44.396416,178.758545 42.476288,179.084946 
	C41.191059,179.303436 40.042980,180.328735 37.964279,180.996414 
z"/>
<path fill="#000000" opacity="1.000000" stroke="none" 
	d="
M38.833477,50.993744 
	C39.878456,50.329300 40.921028,49.089058 41.968769,49.084682 
	C67.713516,48.977032 93.458870,48.982342 119.203773,49.069328 
	C120.197647,49.072685 121.188110,50.086407 122.583412,51.285503 
	C122.986664,54.156689 122.986664,56.371696 122.986664,58.833370 
	C125.934425,58.833370 128.468781,58.833370 131.003143,58.833370 
	C134.800995,58.833370 138.598862,58.833370 142.839691,58.833370 
	C142.839691,62.296078 142.839691,65.365311 142.839691,68.170158 
	C143.546509,68.602676 143.807190,68.897758 144.080078,68.909523 
	C152.999817,69.294357 153.000000,69.290314 153.000000,78.107903 
	C153.000015,87.579224 153.001251,97.050545 152.999573,106.521866 
	C152.998444,112.932770 152.996613,112.933998 146.431183,112.998917 
	C145.458054,113.008537 144.484741,113.000252 143.019669,113.000252 
	C143.019669,115.567833 143.019669,117.833961 143.020142,120.994461 
	C143.020615,124.231239 143.020615,126.573654 143.020615,128.833435 
	C146.163513,128.833435 148.584412,128.833435 151.005310,128.833435 
	C151.673996,129.320786 152.342667,129.808151 153.016907,131.093246 
	C153.022446,134.232590 153.022446,136.574203 153.022446,138.831879 
	C156.162598,138.831879 158.582626,138.831879 161.002655,138.831879 
	C161.660553,139.368317 162.883560,139.897156 162.890884,140.442322 
	C162.988022,147.673782 162.925995,154.907684 162.840881,162.140228 
	C162.837524,162.425842 162.207916,162.704102 160.992737,163.003586 
	C157.772400,163.021393 155.429398,163.021393 153.166733,163.021393 
	C153.166733,166.166733 153.166733,168.588470 153.166748,171.010208 
	C153.117294,171.332321 153.032700,171.653427 153.023499,171.976700 
	C152.711166,182.951477 152.712204,182.951508 141.009094,183.019775 
	C137.765762,183.019989 135.423218,183.019989 133.166656,183.019989 
	C133.166656,186.159897 133.166656,188.580978 133.166656,191.002075 
	C131.806290,191.667938 130.448135,192.909668 129.085236,192.914886 
	C100.008118,193.026535 70.930450,193.010101 41.853024,192.951706 
	C40.905975,192.949814 39.960339,192.244720 38.996590,190.987320 
	C38.930599,187.069138 38.882061,184.031052 38.833527,180.992981 
	C40.042980,180.328735 41.191059,179.303436 42.476288,179.084946 
	C44.396416,178.758545 46.413109,179.000214 48.980671,179.000214 
	C48.980671,143.170837 48.980671,107.550346 48.980064,71.019836 
	C48.979454,67.768036 48.979454,65.426247 48.979454,63.167702 
	C45.828094,63.167702 43.406036,63.167702 40.983978,63.167702 
	C40.350929,62.641136 39.717876,62.114571 39.031937,60.851059 
	C38.930527,57.073986 38.882004,54.033867 38.833477,50.993744 
M93.022385,121.891273 
	C93.022385,124.163376 93.022385,126.435478 93.022385,128.701981 
	C95.279022,128.701981 97.011208,128.701981 98.831093,128.701981 
	C98.831093,125.938431 98.831093,123.469391 98.974571,120.109291 
	C98.974571,117.838585 98.974571,115.567871 98.974571,113.302284 
	C96.711739,113.302284 94.982185,113.302284 93.168907,113.302284 
	C93.168907,116.065208 93.168907,118.532776 93.022385,121.891273 
M153.022781,151.895462 
	C153.022781,154.165878 153.022781,156.436279 153.022781,158.701447 
	C155.288406,158.701447 157.018448,158.701447 158.832901,158.701447 
	C158.832901,155.940750 158.832901,153.472839 158.977478,150.112747 
	C158.977478,147.839951 158.977478,145.567169 158.977478,143.299500 
	C156.712204,143.299500 154.980911,143.299500 153.167099,143.299500 
	C153.167099,146.065140 153.167099,148.535034 153.022781,151.895462 
M113.018776,121.890007 
	C113.018776,124.233826 113.018776,126.577644 113.018776,128.833466 
	C115.806671,128.833466 117.901314,128.833466 120.747658,128.981812 
	C121.553894,129.655350 122.360130,130.328888 123.018135,131.900040 
	C123.067497,134.931030 123.116852,137.962006 123.019676,141.892197 
	C123.068657,144.926865 123.117645,147.961533 123.020256,151.896027 
	C123.069504,154.935944 123.118744,157.975876 123.021111,161.939987 
	C123.021111,167.597839 123.021111,173.255676 123.021111,178.833603 
	C126.106255,178.833603 128.551865,178.833603 131.891571,178.981018 
	C134.235886,178.981018 136.580200,178.981018 138.833603,178.981018 
	C138.833603,175.843124 138.833603,173.420273 139.010498,170.144897 
	C142.190887,169.562912 145.371277,168.980927 148.834381,168.347198 
	C148.834381,159.386124 148.834381,150.194977 148.981796,140.109619 
	C148.981796,137.765015 148.981796,135.420410 148.981796,133.165619 
	C145.842407,133.165619 143.419266,133.165619 140.098007,133.018112 
	C136.376801,132.158539 131.998337,134.972061 128.981064,130.106934 
	C128.981064,127.879112 128.981064,125.651283 128.981064,123.166695 
	C125.744011,123.166695 122.871902,123.166695 119.395897,122.881134 
	C119.208427,122.253189 119.020958,121.625237 118.981392,120.105347 
	C118.981392,117.868767 118.981392,115.632187 118.981392,113.351089 
	C116.759026,113.351089 114.937271,113.351089 113.166428,113.351089 
	C113.166428,116.133316 113.166428,118.565300 113.018776,121.890007 
M148.980316,90.105652 
	C148.980316,87.762573 148.980316,85.419495 148.980316,83.166489 
	C145.839935,83.166489 143.417633,83.166489 140.143158,82.989761 
	C139.537186,79.688354 138.931213,76.386948 138.496643,74.019409 
	C134.966522,72.916656 131.899918,71.958702 128.981476,70.106209 
	C128.981476,67.762497 128.981476,65.418785 128.981476,62.526505 
	C125.462029,63.056240 122.710205,63.470436 119.176506,63.679733 
	C117.206787,63.410542 115.237068,63.141354 113.303833,62.877151 
	C113.303833,65.342155 113.303833,67.075462 113.303833,68.833412 
	C115.737442,68.833412 117.868736,68.833412 120.665672,68.986732 
	C121.499390,69.657867 122.333099,70.329002 123.018532,71.927040 
	C123.018532,84.189583 123.018532,96.452133 123.018532,108.704643 
	C128.639297,108.704643 133.710190,108.704643 139.000168,108.704643 
	C139.000168,106.430832 138.758423,104.409904 139.084961,102.485390 
	C139.303528,101.197174 140.329224,100.045906 141.888245,98.980377 
	C144.232666,98.980377 146.577103,98.980377 148.833344,98.980377 
	C148.833344,95.843872 148.833344,93.421623 148.980316,90.105652 
M88.978317,180.107254 
	C88.978317,177.834717 88.978317,175.562164 88.978317,173.296417 
	C86.721306,173.296417 84.988274,173.296417 83.166656,173.296417 
	C83.166656,176.059113 83.166656,178.528793 82.778961,181.734482 
	C82.268845,182.127350 81.763351,182.855377 81.247910,182.862473 
	C74.319839,182.958069 67.389656,182.998184 60.462624,182.887543 
	C59.909229,182.878693 59.375217,181.656387 58.976330,180.099884 
	C58.928337,177.069000 58.880341,174.038116 58.977707,170.078995 
	C58.977707,137.813446 58.977707,105.547890 58.977707,73.317665 
	C56.710365,73.317665 54.984760,73.317665 53.167652,73.317665 
	C53.167652,106.089661 53.167652,138.548401 53.023640,171.904709 
	C53.071693,174.935806 53.119747,177.966888 53.022026,181.894516 
	C53.022026,184.164627 53.022026,186.434738 53.022026,188.833725 
	C72.708824,188.833725 91.853180,188.833725 111.889320,188.977936 
	C114.161949,188.977936 116.434578,188.977936 118.701630,188.977936 
	C118.701630,186.712433 118.701630,184.980865 118.701630,183.166275 
	C115.937035,183.166275 113.467285,183.166275 110.121765,183.021439 
	C104.217529,183.014191 98.309425,183.116821 92.412247,182.909164 
	C91.198364,182.866409 90.025253,181.665558 88.978317,180.107254 
M111.887642,58.981865 
	C114.163261,58.981865 116.438889,58.981865 118.707153,58.981865 
	C118.707153,56.722046 118.707153,54.986446 118.707153,53.163757 
	C115.940941,53.163757 113.467796,53.163757 110.136208,53.021374 
	C104.956772,53.378525 99.795731,53.403336 94.594452,53.079643 
	C88.950478,52.728394 83.267723,53.000008 77.601883,53.000008 
	C71.769394,53.000008 65.936913,53.000008 60.104424,53.000008 
	C54.489418,53.000008 48.874413,53.000004 42.966015,53.000004 
	C43.066814,55.296780 43.142666,57.025078 43.229343,59.000015 
	C58.442459,59.000015 73.253853,58.935379 88.063004,59.087894 
	C89.771347,59.105492 91.467255,60.331551 93.025406,61.888882 
	C93.025406,64.160194 93.025406,66.431503 93.025406,68.697594 
	C95.279640,68.697594 97.010429,68.697594 98.831085,68.697594 
	C98.831085,65.933846 98.831085,63.465595 99.138321,60.357712 
	C100.404785,59.510952 101.642815,58.010738 102.943649,57.954144 
	C105.609482,57.838165 108.309006,58.496635 111.887642,58.981865 
M118.980835,160.066986 
	C118.980835,154.474823 118.980835,148.882675 118.980835,143.433762 
	C115.567932,143.001984 111.576904,143.641998 110.087639,142.005432 
	C108.401451,140.152466 108.959030,136.257675 108.549400,133.311188 
	C103.342690,133.311188 98.292023,133.311188 93.265823,133.311188 
	C93.265823,148.660934 93.265823,163.697891 93.265823,178.997086 
	C94.335983,178.997086 95.141922,179.025604 95.944969,178.989639 
	C96.882782,178.947662 97.818069,178.849426 98.696167,178.780197 
	C99.470642,169.131699 99.470680,169.134415 109.011589,168.992416 
	C109.672417,168.982574 110.331993,168.888596 111.886307,168.978760 
	C114.228310,168.978760 116.570305,168.978760 118.833740,168.978760 
	C118.833740,165.833527 118.833740,163.412842 118.980835,160.066986 
M79.000000,77.504745 
	C79.000000,72.745377 79.000000,67.986000 79.000000,63.329079 
	C73.315941,63.329079 68.253639,63.329079 63.308533,63.329079 
	C63.308533,102.026588 63.308533,140.394302 63.308533,178.670898 
	C68.684090,178.670898 73.746384,178.670898 79.000000,178.670898 
	C79.000000,145.062668 79.000000,111.783134 79.000000,77.504745 
M109.000008,77.636047 
	C108.933128,76.195244 108.866249,74.754433 108.797852,73.280899 
	C103.406441,73.280899 98.354256,73.280899 93.271019,73.280899 
	C93.271019,85.267830 93.271019,96.971863 93.271019,108.714966 
	C98.598381,108.714966 103.650185,108.714966 109.000000,108.714966 
	C109.000000,98.492462 109.000000,88.552765 109.000008,77.636047 
M89.000000,100.443962 
	C89.000000,91.369591 89.000000,82.295212 89.000000,72.953331 
	C86.672050,73.064262 84.947731,73.146423 83.295273,73.225166 
	C83.295273,85.365562 83.295273,97.072609 83.295273,109.034851 
	C85.333473,108.936333 87.055244,108.853111 89.000000,108.759109 
	C89.000000,106.032799 89.000000,103.727226 89.000000,100.443962 
M89.000000,143.526642 
	C89.000000,140.093719 89.000000,136.660797 89.000000,132.956940 
	C86.684959,133.064804 84.961296,133.145111 83.288818,133.223022 
	C83.288818,145.352951 83.288818,157.057877 83.288818,169.029816 
	C85.315521,168.935242 87.039192,168.854797 89.000000,168.763290 
	C89.000000,160.410767 89.000000,152.465744 89.000000,143.526642 
M113.000015,89.559563 
	C113.000015,92.644707 113.000015,95.729843 113.000015,99.056656 
	C115.349350,98.938461 117.069962,98.851891 118.686302,98.770569 
	C118.686302,93.268463 118.686302,88.219948 118.686302,82.954765 
	C116.638268,83.059998 114.917671,83.148407 113.000031,83.246941 
	C113.000031,85.331375 113.000031,86.968987 113.000015,89.559563 
M89.000908,120.521469 
	C89.000908,118.093170 89.000908,115.664871 89.000908,112.959236 
	C86.696159,113.062576 84.975220,113.139732 83.290184,113.215286 
	C83.290184,118.670845 83.290184,123.720528 83.290184,129.030106 
	C85.319786,128.935287 87.038231,128.855011 88.999100,128.763412 
	C88.999100,126.069580 88.999100,123.773422 89.000908,120.521469 
M57.349739,63.014862 
	C55.937450,63.095612 54.525162,63.176361 52.946476,63.266624 
	C53.048965,65.439781 53.130581,67.170418 53.219692,69.059914 
	C55.461262,68.953430 57.187672,68.871422 59.382511,68.767159 
	C58.934498,66.510010 58.596355,64.806412 57.349739,63.014862 
M128.894058,183.742813 
	C127.080811,183.433304 125.267563,183.123795 123.240555,182.777786 
	C123.240555,185.195404 123.240555,186.919769 123.240555,188.752472 
	C125.206772,188.752472 126.930992,188.752472 128.988052,188.752472 
	C128.988052,187.223038 128.988052,185.937210 128.894058,183.742813 
M148.890671,178.268661 
	C148.890671,176.659744 148.890671,175.050827 148.890671,173.224304 
	C146.876648,173.224304 145.152481,173.224304 143.218414,173.224304 
	C143.218414,175.141617 143.218414,176.865768 143.218414,178.894592 
	C145.036560,178.894592 146.643341,178.894592 148.890671,178.268661 
M118.998260,176.454803 
	C119.371773,170.735764 115.633827,173.527222 112.957848,173.239212 
	C113.052910,175.391068 113.129410,177.122772 113.253456,179.930862 
	C115.617905,178.867386 117.302956,178.109497 118.998260,176.454803 
M47.347717,183.014404 
	C45.937672,183.095673 44.527626,183.176941 42.946121,183.268097 
	C43.049171,185.441055 43.131096,187.168625 43.220787,189.059875 
	C45.461445,188.952957 47.186253,188.870667 49.386662,188.765671 
	C48.932907,186.498550 48.593586,184.803162 47.347717,183.014404 
M117.346939,133.014328 
	C115.937752,133.095825 114.528557,133.177307 112.946037,133.268814 
	C113.049316,135.441559 113.131386,137.167953 113.221313,139.059860 
	C115.456078,138.953033 117.182388,138.870514 119.388092,138.765091 
	C118.932892,136.497620 118.592819,134.803650 117.346939,133.014328 
M113.109436,103.731430 
	C113.109436,105.340286 113.109436,106.949142 113.109436,108.775620 
	C115.123398,108.775620 116.847504,108.775620 118.781509,108.775620 
	C118.781509,106.858574 118.781509,105.134361 118.781509,103.105522 
	C116.963402,103.105522 115.356697,103.105522 113.109436,103.731430 
M107.349922,113.012581 
	C105.937454,113.093590 104.524986,113.174599 102.944199,113.265259 
	C103.047226,115.445503 103.128891,117.173660 103.218132,119.062073 
	C105.454369,118.955666 107.185036,118.873306 109.386429,118.768555 
	C108.934853,116.500443 108.596603,114.801514 107.349922,113.012581 
M126.454483,113.003616 
	C120.738907,112.630333 123.528908,116.366066 123.240883,119.040245 
	C125.391449,118.945251 127.122086,118.868805 129.928497,118.744835 
	C128.865631,116.381828 128.108170,114.697838 126.454483,113.003616 
M133.108597,113.730759 
	C133.108597,115.340111 133.108597,116.949463 133.108597,118.775421 
	C135.123154,118.775421 136.847778,118.775421 138.781281,118.775421 
	C138.781281,116.858833 138.781281,115.134109 138.781281,113.104713 
	C136.972092,113.104713 135.360703,113.104713 133.108597,113.730759 
M108.253250,128.889236 
	C108.562714,127.079185 108.872185,125.269127 109.218346,123.244469 
	C106.806686,123.244469 105.085114,123.244469 103.251419,123.244469 
	C103.251419,125.208069 103.251419,126.929382 103.251419,128.984177 
	C104.769791,128.984177 106.058044,128.984177 108.253250,128.889236 
M136.459518,128.999573 
	C141.227783,128.479736 138.259827,125.335541 138.829391,123.302933 
	C136.679703,123.302933 134.954086,123.302933 131.365158,123.302933 
	C133.239502,125.857071 134.392593,127.428368 136.459518,128.999573 
M143.110748,73.732407 
	C143.110748,75.340538 143.110748,76.948669 143.110748,78.774445 
	C145.123764,78.774445 146.847092,78.774445 148.780365,78.774445 
	C148.780365,76.858208 148.780365,75.134781 148.780365,73.106812 
	C146.962982,73.106812 145.357010,73.106812 143.110748,73.732407 
M115.546524,78.997803 
	C121.243126,79.361244 118.486931,75.647362 118.746902,72.960587 
	C116.606651,73.055328 114.880127,73.131752 112.072296,73.256050 
	C113.150536,75.650826 113.901352,77.318405 115.546524,78.997803 
M103.108292,178.255325 
	C104.920258,178.563965 106.732231,178.872604 108.756134,179.217346 
	C108.756134,176.803986 108.756134,175.080994 108.756134,173.250854 
	C106.792648,173.250854 105.069801,173.250854 103.016190,173.250854 
	C103.016190,174.777863 103.016190,176.062622 103.108292,178.255325 
M148.986374,104.652405 
	C147.207397,103.935707 145.428421,103.219009 143.273407,102.350815 
	C143.273407,105.254051 143.273407,106.978401 143.273407,108.978050 
	C145.910309,108.596573 149.570145,110.734123 148.986374,104.652405 
M138.893433,63.743351 
	C137.080505,63.434124 135.267593,63.124893 133.241547,62.779316 
	C133.241547,65.195572 133.241547,66.919563 133.241547,68.751465 
	C135.206924,68.751465 136.930786,68.751465 138.986740,68.751465 
	C138.986740,67.222809 138.986740,65.937271 138.893433,63.743351 
M105.546638,68.993919 
	C111.245369,69.361267 108.477310,65.642128 108.748878,62.963600 
	C106.601257,63.058598 104.878250,63.134815 102.076294,63.258755 
	C103.152229,65.649300 103.902390,67.316025 105.546638,68.993919 
M83.002068,66.459213 
	C83.521889,71.223930 86.663589,68.259384 88.695465,68.827438 
	C88.695465,66.679268 88.695465,64.954765 88.695465,61.367718 
	C86.113319,63.262672 84.557648,64.404327 83.002068,66.459213 
z"/>
<path fill="#000000" opacity="1.000000" stroke="none" 
	d="
M253.166977,131.002304 
	C251.794952,131.668182 250.434555,132.880997 249.049011,132.910416 
	C240.608688,133.089737 232.162643,132.999954 223.359528,132.999954 
	C223.359528,148.271149 223.359528,163.395477 223.359528,178.394852 
	C226.597672,178.983566 229.793076,179.564499 233.004303,181.020599 
	C233.068954,184.931641 233.117783,187.967499 233.166626,191.003372 
	C232.456802,191.666916 231.749741,192.906693 231.036728,192.910110 
	C210.809769,193.007507 190.582214,192.987518 170.354919,192.927505 
	C169.906967,192.926178 169.461044,192.236954 168.996948,190.988419 
	C168.931107,187.069336 168.882523,184.030441 168.833923,180.991562 
	C170.043655,180.327789 171.192108,179.303299 172.477509,179.084900 
	C174.397522,178.758728 176.413986,179.000214 178.980652,179.000214 
	C178.980652,143.171402 178.980652,107.552177 178.979843,71.022804 
	C178.979034,67.770432 178.979034,65.428207 178.979034,63.166718 
	C175.834869,63.166718 173.413986,63.166718 170.705261,63.040878 
	C169.889145,62.279015 169.360840,61.642990 168.905380,60.556931 
	C168.929749,57.068733 168.881271,54.030571 168.832794,50.992409 
	C169.877716,50.328407 170.919785,49.090149 171.967987,49.084938 
	C194.380859,48.973602 216.794495,48.979664 239.207581,49.069668 
	C240.201019,49.073662 241.190399,50.087715 242.584915,51.287018 
	C242.988159,54.157188 242.988159,56.371628 242.988159,58.832352 
	C245.937683,58.832352 248.472412,58.832352 251.007126,58.832352 
	C255.000671,59.268803 258.994232,59.705254 263.003845,61.015228 
	C263.019928,64.230881 263.019928,66.573013 263.019928,68.834167 
	C266.163391,68.834167 268.584076,68.834167 271.004761,68.834167 
	C271.629883,69.021912 272.255035,69.209648 272.949890,70.149651 
	C273.019653,73.573158 273.019653,76.244415 273.019653,78.833344 
	C276.154694,78.833344 278.578400,78.833344 281.002075,78.833344 
	C281.663940,79.685822 282.884003,80.528389 282.899323,81.392365 
	C283.022247,88.307228 282.929413,95.226288 282.839233,102.143242 
	C282.835510,102.428360 282.202972,102.705292 280.986084,103.001831 
	C277.766296,103.017632 275.423828,103.017632 273.164459,103.017632 
	C273.164459,106.160362 273.164459,108.581375 273.164459,111.002380 
	C273.115692,111.324707 273.032257,111.646057 273.023163,111.969498 
	C272.714874,122.951553 272.715912,122.951584 261.009766,123.020203 
	C257.767090,123.020866 255.425049,123.020866 253.166977,123.020866 
	C253.166977,126.161255 253.166977,128.581772 253.166977,131.002304 
M273.023041,91.894051 
	C273.023041,94.164871 273.023041,96.435684 273.023041,98.701019 
	C275.279388,98.701019 277.010651,98.701019 278.833252,98.701019 
	C278.833252,95.938820 278.833252,93.471008 278.978607,90.111244 
	C278.978607,87.838020 278.978607,85.564796 278.978607,83.297379 
	C276.721161,83.297379 274.988190,83.297379 273.166748,83.297379 
	C273.166748,86.062454 273.166748,88.532837 273.023041,91.894051 
M248.330292,71.167450 
	C248.599152,68.525429 248.867996,65.883408 249.167877,62.936428 
	C246.637375,63.052391 244.910797,63.131512 243.166214,63.211460 
	C243.166214,66.418037 243.166214,69.207764 243.018738,72.887024 
	C243.018738,74.785103 243.018738,76.683182 243.018738,78.833473 
	C245.921082,78.833473 248.462601,78.833473 251.742813,79.217934 
	C252.136047,79.727318 252.864075,80.231697 252.871765,80.746849 
	C252.970535,87.350685 253.035110,93.957489 252.897720,100.559151 
	C252.881271,101.349922 251.625290,102.114899 250.051971,102.987106 
	C247.837418,102.987106 245.622879,102.987106 243.166382,102.987106 
	C243.166382,105.936874 243.166382,108.471794 243.018448,111.899895 
	C243.018448,114.242439 243.018448,116.584976 243.018448,118.831894 
	C246.155457,118.831894 248.577072,118.831894 251.892639,118.979439 
	C254.236420,118.979439 256.580200,118.979439 258.831909,118.979439 
	C258.831909,115.843262 258.831909,113.420975 259.009644,110.146065 
	C262.189819,109.563332 265.370026,108.980606 268.833496,108.345963 
	C268.833496,99.386803 268.833496,90.195557 268.980682,80.110062 
	C268.980682,77.765732 268.980682,75.421402 268.980682,73.166512 
	C265.841248,73.166512 263.418579,73.166512 260.098297,73.018372 
	C257.066895,73.067772 254.035477,73.117180 250.374725,73.014771 
	C249.621048,72.663155 248.867355,72.311539 248.330292,71.167450 
M230.108505,123.019157 
	C227.835159,123.019157 225.561798,123.019157 223.294601,123.019157 
	C223.294601,125.287018 223.294601,127.019897 223.294601,128.837448 
	C226.059006,128.837448 228.529724,128.837448 231.897125,128.981796 
	C234.163467,128.981796 236.429794,128.981796 238.715515,128.981796 
	C238.715515,123.381615 238.715515,118.313911 238.715515,113.323212 
	C236.688583,113.323212 234.954742,113.323212 234.077026,113.323212 
	C232.942566,116.951424 231.971512,120.057007 230.108505,123.019157 
M213.022095,171.898682 
	C213.070160,174.933426 213.118225,177.968170 212.776413,181.737152 
	C212.266144,182.129425 211.760468,182.856369 211.244888,182.863434 
	C204.318558,182.958694 197.390137,182.998596 190.464859,182.887848 
	C189.911102,182.878983 189.376724,181.658401 188.978043,180.102219 
	C188.929810,177.069290 188.881592,174.036362 188.977615,170.075531 
	C188.977615,137.810715 188.977615,105.545891 188.977615,73.316093 
	C186.720490,73.316093 184.994949,73.316093 183.166641,73.316093 
	C183.166641,106.087280 183.166641,138.545349 183.021942,171.901871 
	C183.070175,174.934891 183.118423,177.967896 183.021881,181.897217 
	C183.021881,184.165329 183.021881,186.433441 183.021881,188.710938 
	C195.296143,188.710938 207.029129,188.710938 218.833710,188.710938 
	C218.833710,185.949081 218.833710,183.476028 218.977936,180.103561 
	C218.929733,177.068954 218.881531,174.034332 218.978180,170.072372 
	C218.978180,157.805038 218.978180,145.537704 218.978180,133.313263 
	C216.720428,133.313263 214.995102,133.313263 213.166656,133.313263 
	C213.166656,146.081863 213.166656,158.540787 213.022095,171.898682 
M230.071915,53.021725 
	C211.131927,53.021725 192.191940,53.021725 172.962219,53.021725 
	C173.065750,55.306087 173.144089,57.034481 173.233170,59.000004 
	C188.450974,59.000004 203.260193,58.935295 218.067154,59.088039 
	C219.774017,59.105648 221.468384,60.333912 223.024734,61.891621 
	C223.024734,64.162239 223.024734,66.432854 223.024734,68.698563 
	C225.279602,68.698563 227.010117,68.698563 228.831451,68.698563 
	C228.831451,65.935829 228.831451,63.468369 228.988266,60.300457 
	C229.658600,59.811584 230.328934,59.322712 231.891022,58.979259 
	C234.164536,58.979259 236.438065,58.979259 238.704590,58.979259 
	C238.704590,56.712994 238.704590,54.979992 238.704590,53.166168 
	C235.940796,53.166168 233.470032,53.166168 230.071915,53.021725 
M223.020706,111.891869 
	C223.020706,114.167358 223.020706,116.442856 223.020706,118.707756 
	C225.285675,118.707756 227.021194,118.707756 228.833344,118.707756 
	C228.833344,115.946098 228.833344,113.473251 229.011612,110.148956 
	C232.190384,109.563469 235.369156,108.977989 238.833771,108.339859 
	C238.833771,99.377548 238.833771,90.191597 238.979248,80.111595 
	C238.979248,77.769371 238.979248,75.427155 238.979248,73.166229 
	C235.836014,73.166229 233.415146,73.166229 230.097977,73.019203 
	C227.847336,73.019203 225.596710,73.019203 223.166656,73.019203 
	C223.166656,85.995171 223.166656,98.497795 223.020706,111.891869 
M193.000000,157.499863 
	C193.000000,164.591339 193.000000,171.682816 193.000000,178.672150 
	C198.681534,178.672150 203.743683,178.672150 208.692871,178.672150 
	C208.692871,139.975998 208.692871,101.608429 208.692871,63.327660 
	C203.317123,63.327660 198.256714,63.327660 193.000000,63.327660 
	C193.000000,94.603256 193.000000,125.551605 193.000000,157.499863 
M213.000000,92.500465 
	C213.000000,101.250687 213.000000,110.000916 213.000000,119.036407 
	C215.301529,118.933792 217.025696,118.856926 218.718842,118.781433 
	C218.718842,103.330597 218.718842,88.294228 218.718842,72.976654 
	C216.699570,73.066322 214.975449,73.142876 213.000000,73.230598 
	C213.000000,79.584656 213.000000,85.542686 213.000000,92.500465 
M243.001785,94.357681 
	C243.073914,95.803413 243.146027,97.249146 243.219620,98.724586 
	C245.233627,98.724586 246.952271,98.724586 248.741394,98.724586 
	C248.741394,93.400650 248.741394,88.351097 248.741394,83.275986 
	C246.757401,83.275986 245.037659,83.275986 243.001709,83.275986 
	C243.001709,86.829498 243.001709,90.111732 243.001785,94.357681 
M223.001907,186.459030 
	C223.523392,191.218597 226.660812,188.264160 228.694962,188.825317 
	C228.694962,186.678940 228.694962,184.955261 228.694962,181.367706 
	C226.141388,183.241898 224.571609,184.394043 223.001907,186.459030 
M178.267700,183.110535 
	C176.659470,183.110535 175.051239,183.110535 173.224915,183.110535 
	C173.224915,185.122711 173.224915,186.846283 173.224915,188.780975 
	C175.141785,188.780975 176.865326,188.780975 178.893402,188.780975 
	C178.893402,186.963028 178.893402,185.356934 178.267700,183.110535 
M263.109314,113.731308 
	C263.109314,115.340240 263.109314,116.949173 263.109314,118.775673 
	C265.123352,118.775673 266.847534,118.775673 268.781555,118.775673 
	C268.781555,116.858604 268.781555,115.134315 268.781555,113.105400 
	C266.963440,113.105400 265.356659,113.105400 263.109314,113.731308 
M215.544739,129.000443 
	C221.269455,129.374969 218.473480,125.632500 218.763931,122.955437 
	C216.609573,123.050621 214.876190,123.127205 212.066101,123.251358 
	C213.142593,125.645020 213.894821,127.317673 215.544739,129.000443 
M248.892151,123.744385 
	C247.080154,123.434921 245.268158,123.125450 243.242157,122.779434 
	C243.242157,125.192528 243.242157,126.915855 243.242157,128.750870 
	C245.207275,128.750870 246.930359,128.750870 248.986420,128.750870 
	C248.986420,127.222252 248.986420,125.937286 248.892151,123.744385 
M258.273926,63.102432 
	C256.661133,63.102432 255.048355,63.102432 253.220978,63.102432 
	C253.220978,65.121391 253.220978,66.849701 253.220978,68.784744 
	C255.139404,68.784744 256.867828,68.784744 258.901306,68.784744 
	C258.901306,66.965591 258.901306,65.354950 258.273926,63.102432 
M232.999069,65.544693 
	C232.624771,71.269669 236.367126,68.474350 239.044968,68.763954 
	C238.949814,66.609612 238.873230,64.876099 238.749084,62.065483 
	C236.354858,63.142284 234.682037,63.894630 232.999069,65.544693 
M213.108047,63.730358 
	C213.108047,65.339996 213.108047,66.949638 213.108047,68.776268 
	C215.123001,68.776268 216.847946,68.776268 218.782120,68.776268 
	C218.782120,66.858971 218.782120,65.133926 218.782120,63.104168 
	C216.963821,63.104168 215.356339,63.104168 213.108047,63.730358 
M184.650436,63.014214 
	C183.933594,64.794968 183.216751,66.575722 182.350449,68.727730 
	C185.252838,68.727730 186.980011,68.727730 188.972900,68.727730 
	C188.598526,66.092827 190.742828,62.425152 184.650436,63.014214 
z"/>
<path fill="#000000" opacity="1.000000" stroke="none" 
	d="
M298.833252,170.997147 
	C298.833252,138.480240 298.833252,105.963318 298.833252,73.874619 
	C295.613312,72.978561 292.714783,72.171951 289.414459,70.713104 
	C289.012634,67.843704 289.012634,65.626541 289.012634,63.167351 
	C285.726959,63.167351 282.862366,63.167351 279.997803,63.167351 
	C279.682037,59.488041 278.958130,55.771938 279.284546,52.150513 
	C279.390625,50.973366 282.234100,49.150261 283.839264,49.135651 
	C305.805420,48.935715 327.774017,48.984425 349.741730,49.054703 
	C350.755920,49.057941 351.767639,49.839966 352.900299,51.077583 
	C353.069061,54.932201 353.118042,57.968521 353.166992,61.004837 
	C352.638916,61.641747 352.110840,62.278664 350.847351,62.967979 
	C347.768768,63.020378 345.425629,63.020378 343.166595,63.020378 
	C343.166595,66.160889 343.166595,68.582321 343.166595,71.003754 
	C343.166595,103.442406 343.166595,135.881058 343.166595,168.659821 
	C354.902069,168.659821 366.621979,168.659821 378.558746,168.659821 
	C378.947083,165.787872 378.373688,161.888504 380.055664,160.026932 
	C381.544373,158.379257 385.543182,158.999435 389.000610,158.543686 
	C389.000610,153.462311 389.082428,148.189301 388.966553,142.920639 
	C388.907532,140.237228 389.766571,138.716476 392.654785,139.006622 
	C396.101959,139.352936 399.543396,139.756088 403.004028,141.013000 
	C403.069336,144.932617 403.117981,147.973846 403.166656,151.015076 
	C403.111084,163.333496 402.905334,175.654144 403.086273,187.969086 
	C403.144867,191.953888 401.904083,193.092407 397.951416,193.078720 
	C359.985779,192.947144 322.019348,192.947266 284.053711,193.078659 
	C280.106995,193.092316 278.428772,191.963715 278.975983,187.973236 
	C279.132874,186.829132 279.144897,185.623627 278.974487,184.483475 
	C278.303680,179.995178 280.274292,178.412048 284.599457,178.960922 
	C286.401215,179.189560 288.257782,178.986816 290.990173,178.980072 
	C294.233490,178.979950 296.576019,178.979950 298.833252,178.979950 
	C298.833252,175.838974 298.833252,173.418060 298.833252,170.997147 
M392.920074,171.578598 
	C392.279907,172.108200 391.639771,172.637787 390.107574,173.018295 
	C387.870972,173.018295 385.634399,173.018295 383.352173,173.018295 
	C383.352173,175.241226 383.352173,177.062469 383.352173,178.832611 
	C386.136139,178.832611 388.567871,178.832611 391.893311,178.978683 
	C394.235809,178.978683 396.578308,178.978683 398.831879,178.978683 
	C398.831879,175.840271 398.831879,173.418991 398.980957,170.105789 
	C398.980957,167.869400 398.980957,165.632996 398.980957,163.351959 
	C396.758820,163.351959 394.937347,163.351959 393.168121,163.351959 
	C393.168121,166.134232 393.168121,168.565948 392.920074,171.578598 
M360.106812,173.022202 
	C354.492676,173.022202 348.878540,173.022202 343.312927,173.022202 
	C343.312927,175.307175 343.312927,177.029175 343.312927,178.832962 
	C349.414795,178.832962 355.207153,178.832962 361.890778,178.978104 
	C364.163452,178.978104 366.436127,178.978104 368.702637,178.978104 
	C368.702637,176.721252 368.702637,174.988510 368.702637,173.167038 
	C365.938995,173.167038 363.469269,173.167038 360.106812,173.022202 
M299.016052,60.143490 
	C300.133118,59.762436 301.243561,59.076759 302.368408,59.052216 
	C307.697693,58.935921 313.030884,59.000034 318.362701,59.000008 
	C328.478241,58.999958 338.593811,58.999996 348.697693,58.999996 
	C348.697693,56.738537 348.697693,55.011948 348.697693,53.166649 
	C329.264984,53.166649 310.131195,53.166649 290.106293,53.021496 
	C287.838776,53.021496 285.571259,53.021496 283.280731,53.021496 
	C283.280731,55.259880 283.280731,56.990406 283.280731,59.095070 
	C286.018188,59.095070 288.480377,59.095070 291.196442,59.676125 
	C291.853973,60.118065 292.511505,60.560005 293.025177,61.892849 
	C293.025177,64.163834 293.025177,66.434822 293.025177,68.699417 
	C295.279388,68.699417 297.010620,68.699417 298.830963,68.699417 
	C298.830963,65.937843 298.830963,63.469906 299.016052,60.143490 
M372.776794,181.737366 
	C372.099213,182.151169 371.424744,182.919479 370.743622,182.925400 
	C361.133118,183.008926 351.520782,183.049454 341.911835,182.906204 
	C340.876617,182.890778 339.859497,181.662369 338.979156,180.105743 
	C338.979156,177.833252 338.979156,175.560760 338.979156,173.295105 
	C336.712982,173.295105 334.980499,173.295105 333.166016,173.295105 
	C333.166016,176.057343 333.166016,178.526978 332.779602,181.733444 
	C331.112427,182.155624 329.451752,182.911575 327.776978,182.944229 
	C318.854187,183.118179 309.927856,183.111069 300.111145,183.022430 
	C297.839081,183.022430 295.566986,183.022430 293.299561,183.022430 
	C293.299561,185.279312 293.299561,187.010925 293.299561,188.833359 
	C296.064606,188.833359 298.533691,188.833359 301.929749,188.978439 
	C331.619293,188.930069 361.308838,188.881714 391.889862,188.977768 
	C394.162079,188.977768 396.434296,188.977768 398.701294,188.977768 
	C398.701294,186.720886 398.701294,184.988876 398.701294,183.166656 
	C395.937988,183.166656 393.468201,183.166656 390.099731,183.021957 
	C386.377747,182.162186 381.999878,184.962570 378.977539,180.111435 
	C378.977539,177.839371 378.977539,175.567307 378.977539,173.299744 
	C376.720703,173.299744 374.989136,173.299744 373.166626,173.299744 
	C373.166626,176.063797 373.166626,178.533417 372.776794,181.737366 
M303.020355,71.921669 
	C303.068665,104.948128 303.116974,137.974594 303.017792,171.894974 
	C303.017792,174.237762 303.017792,176.580536 303.017792,178.834854 
	C306.160492,178.834854 308.582550,178.834854 311.930176,178.981873 
	C317.529816,178.981873 323.129456,178.981873 328.704742,178.981873 
	C328.704742,140.036285 328.704742,101.650871 328.704742,63.166569 
	C322.942169,63.166569 317.473206,63.166569 311.099792,63.018745 
	C308.426758,63.018745 305.753693,63.018745 303.166534,63.018745 
	C303.166534,66.145966 303.166534,68.569817 303.020355,71.921669 
M333.000092,123.500000 
	C333.000092,138.587738 333.000092,153.675461 333.000092,169.043594 
	C335.311462,168.936630 337.039185,168.856674 338.715942,168.779083 
	C338.715942,136.651779 338.715942,104.947029 338.715942,72.969536 
	C336.685333,73.063324 334.958923,73.143066 333.000092,73.233543 
	C333.000092,89.926826 333.000092,106.213409 333.000092,123.500000 
M283.002258,185.545944 
	C282.633453,191.254013 286.359589,188.479111 289.040497,188.753677 
	C288.945648,186.607727 288.869232,184.878799 288.745148,182.070953 
	C286.351624,183.148102 284.682434,183.899277 283.002258,185.545944 
M398.890076,158.268219 
	C398.890076,156.659607 398.890076,155.050995 398.890076,153.226242 
	C396.876465,153.226242 395.152618,153.226242 393.220367,153.226242 
	C393.220367,155.141724 393.220367,156.865540 393.220367,158.893936 
	C395.036713,158.893936 396.643158,158.893936 398.890076,158.268219 
M338.997986,66.453987 
	C339.365479,60.748371 335.642181,63.518700 332.959595,63.247890 
	C333.054443,65.392509 333.130890,67.120926 333.255096,69.928864 
	C335.648987,68.851440 337.317871,68.100327 338.997986,66.453987 
M397.346222,148.985535 
	C398.062500,147.208084 398.778809,145.430634 399.647522,143.274979 
	C396.745056,143.274979 395.022736,143.274979 393.021149,143.274979 
	C393.404633,145.912277 391.272186,149.566360 397.346222,148.985535 
M383.746735,163.110626 
	C383.436737,164.920593 383.126709,166.730545 382.779694,168.756531 
	C385.193268,168.756531 386.914886,168.756531 388.749603,168.756531 
	C388.749603,166.791962 388.749603,165.070587 388.749603,163.014236 
	C387.221100,163.014236 385.937347,163.014236 383.746735,163.110626 
z"/>
<path fill="#6ECBE6" opacity="1.000000" stroke="none" 
	d="
M279.998199,63.592319 
	C282.862366,63.167351 285.726959,63.167351 289.012634,63.167351 
	C289.012634,65.626541 289.012634,67.843704 289.062927,70.508163 
	C288.782410,70.963074 288.451660,70.973701 288.120819,70.977844 
	C281.033478,71.066475 281.033478,71.066338 281.001587,78.399803 
	C278.578400,78.833344 276.154694,78.833344 273.019653,78.833344 
	C273.019653,76.244415 273.019653,73.573158 273.093140,70.449883 
	C277.585693,70.450966 281.094452,69.864197 279.998199,63.592319 
z"/>
<path fill="#6ACAE9" opacity="1.000000" stroke="none" 
	d="
M168.832535,61.006966 
	C169.360840,61.642990 169.889145,62.279015 170.706787,63.473770 
	C171.006653,66.350388 171.017166,68.668274 171.027679,70.986160 
	C170.700943,70.988518 170.374191,70.992081 170.047440,70.993065 
	C160.995895,71.020279 160.995895,71.020226 161.441376,61.440556 
	C164.196716,60.999081 166.514618,61.003025 168.832535,61.006966 
z"/>
<path fill="#75CCD6" opacity="1.000000" stroke="none" 
	d="
M168.905380,60.556931 
	C166.514618,61.003025 164.196716,60.999081 161.443237,60.990566 
	C161.004837,59.999893 160.999146,59.013786 160.999634,58.027683 
	C161.003128,51.036282 161.003540,51.036282 168.398529,50.994019 
	C168.881271,54.030571 168.929749,57.068733 168.905380,60.556931 
z"/>
<path fill="#70CBE2" opacity="1.000000" stroke="none" 
	d="
M353.601440,61.003826 
	C353.118042,57.968521 353.069061,54.932201 353.093384,51.446270 
	C356.000000,51.808994 360.688354,48.670303 361.012726,54.816959 
	C361.320038,60.640980 361.035797,60.961578 353.601440,61.003826 
z"/>
<path fill="#7FCECF" opacity="1.000000" stroke="none" 
	d="
M403.601379,151.012436 
	C403.117981,147.973846 403.069336,144.932617 403.093750,141.441071 
	C405.988312,141.829788 410.707123,138.627426 411.014435,144.815826 
	C411.306213,150.691101 411.080078,150.964142 403.601379,151.012436 
z"/>
<path fill="#75CCD6" opacity="1.000000" stroke="none" 
	d="
M38.398911,50.995277 
	C38.882004,54.033867 38.930527,57.073986 38.905434,60.564995 
	C36.122665,60.154484 31.694235,63.283245 31.028925,57.681408 
	C30.314938,51.669746 30.982046,51.039856 38.398911,50.995277 
z"/>
<path fill="#70CBE2" opacity="1.000000" stroke="none" 
	d="
M233.601074,191.002533 
	C233.117783,187.967499 233.068954,184.931641 233.093369,181.446167 
	C235.999939,181.809052 240.688385,178.670319 241.012741,184.816910 
	C241.320068,190.640839 241.036041,190.961151 233.601074,191.002533 
z"/>
<path fill="#77CDD1" opacity="1.000000" stroke="none" 
	d="
M168.399261,180.993500 
	C168.882523,184.030441 168.931107,187.069336 168.906815,190.558319 
	C166.010117,190.173874 161.298737,193.359589 160.985443,187.184464 
	C160.688263,181.326630 160.931564,181.039917 168.399261,180.993500 
z"/>
<path fill="#77CDD1" opacity="1.000000" stroke="none" 
	d="
M38.398903,180.994690 
	C38.882061,184.031052 38.930599,187.069138 38.906330,190.557159 
	C36.009613,190.173965 31.299677,193.358261 30.986172,187.184311 
	C30.688765,181.327469 30.932808,181.040207 38.398903,180.994690 
z"/>
<path fill="#75CCD6" opacity="1.000000" stroke="none" 
	d="
M273.597443,111.001114 
	C273.164459,108.581375 273.164459,106.160362 273.164459,103.017632 
	C275.423828,103.017632 277.766296,103.017632 280.555481,103.091049 
	C280.981506,110.963982 280.981506,110.963982 273.597443,111.001114 
z"/>
<path fill="#75CCDD" opacity="1.000000" stroke="none" 
	d="
M251.005768,58.398663 
	C248.472412,58.832352 245.937683,58.832352 242.988159,58.832352 
	C242.988159,56.371628 242.988159,54.157188 242.940048,51.496704 
	C243.222809,51.041313 243.553635,51.026657 243.884567,51.023415 
	C250.964294,50.954041 250.964294,50.954285 251.005768,58.398663 
z"/>
<path fill="#73CBE1" opacity="1.000000" stroke="none" 
	d="
M161.002075,138.399124 
	C158.582626,138.831879 156.162598,138.831879 153.022446,138.831879 
	C153.022446,136.574203 153.022446,134.232590 153.095276,131.444138 
	C160.968262,131.011551 160.968262,131.011551 161.002075,138.399124 
z"/>
<path fill="#6ECBE6" opacity="1.000000" stroke="none" 
	d="
M133.599472,191.001572 
	C133.166656,188.580978 133.166656,186.159897 133.166656,183.019989 
	C135.423218,183.019989 137.765762,183.019989 140.555237,183.093323 
	C140.989044,190.968384 140.989044,190.968384 133.599472,191.001572 
z"/>
<path fill="#78CDD6" opacity="1.000000" stroke="none" 
	d="
M151.003998,128.400482 
	C148.584412,128.833435 146.163513,128.833435 143.020615,128.833435 
	C143.020615,126.573654 143.020615,124.231239 143.093597,121.441780 
	C150.967194,121.015388 150.967194,121.015388 151.003998,128.400482 
z"/>
<path fill="#7CCDCE" opacity="1.000000" stroke="none" 
	d="
M153.599823,171.008163 
	C153.166733,168.588470 153.166733,166.166733 153.166733,163.021393 
	C155.429398,163.021393 157.772400,163.021393 160.562836,163.094055 
	C160.982697,170.968506 160.982697,170.968506 153.599823,171.008163 
z"/>
<path fill="#6ACBE6" opacity="1.000000" stroke="none" 
	d="
M298.400452,170.997833 
	C298.833252,173.418060 298.833252,175.838974 298.833252,178.979950 
	C296.576019,178.979950 294.233490,178.979950 291.444000,178.906601 
	C291.012207,171.032181 291.012207,171.032181 298.400452,170.997833 
z"/>
<path fill="#75CCDD" opacity="1.000000" stroke="none" 
	d="
M253.599823,131.001648 
	C253.166977,128.581772 253.166977,126.161255 253.166977,123.020866 
	C255.425049,123.020866 257.767090,123.020866 260.555969,123.093918 
	C260.986481,130.967514 260.986481,130.967514 253.599823,131.001648 
z"/>
<path fill="#75CCDD" opacity="1.000000" stroke="none" 
	d="
M343.599487,71.002831 
	C343.166595,68.582321 343.166595,66.160889 343.166595,63.020378 
	C345.425629,63.020378 347.768768,63.020378 350.559204,63.093666 
	C350.985718,70.967743 350.985718,70.967743 343.599487,71.002831 
z"/>
<path fill="#73CBE1" opacity="1.000000" stroke="none" 
	d="
M131.002350,58.399696 
	C128.468781,58.833370 125.934425,58.833370 122.986664,58.833370 
	C122.986664,56.371696 122.986664,54.156689 122.938248,51.495392 
	C123.220619,51.040585 123.551369,51.027264 123.882217,51.024265 
	C130.963120,50.960075 130.963120,50.960297 131.002350,58.399696 
z"/>
<path fill="#7CCDCE" opacity="1.000000" stroke="none" 
	d="
M271.003357,68.401100 
	C268.584076,68.834167 266.163391,68.834167 263.019928,68.834167 
	C263.019928,66.573013 263.019928,64.230881 263.092896,61.441864 
	C270.966064,61.017975 270.966064,61.017975 271.003357,68.401100 
z"/>
<path fill="#7CCDCE" opacity="1.000000" stroke="none" 
	d="
M40.986725,63.600693 
	C43.406036,63.167702 45.828094,63.167702 48.979454,63.167702 
	C48.979454,65.426247 48.979454,67.768036 48.906605,70.556488 
	C41.029922,70.982727 41.029922,70.982727 40.986725,63.600693 
z"/>
<path fill="#7CCDCE" opacity="1.000000" stroke="none" 
	d="
M171.461365,70.990662 
	C171.017166,68.668274 171.006653,66.350388 170.994614,63.599609 
	C173.413986,63.166718 175.834869,63.166718 178.979034,63.166718 
	C178.979034,65.428207 178.979034,67.770432 178.906281,70.559692 
	C176.520691,71.002884 174.207870,70.999031 171.461365,70.990662 
z"/>
<path fill="#FFE300" opacity="1.000000" stroke="none" 
	d="
M79.000000,78.004173 
	C79.000000,111.783134 79.000000,145.062668 79.000000,178.670898 
	C73.746384,178.670898 68.684090,178.670898 63.308533,178.670898 
	C63.308533,140.394302 63.308533,102.026588 63.308533,63.329079 
	C68.253639,63.329079 73.315941,63.329079 79.000000,63.329079 
	C79.000000,67.986000 79.000000,72.745377 79.000000,78.004173 
z"/>
<path fill="#67CAEE" opacity="1.000000" stroke="none" 
	d="
M110.992157,168.833740 
	C110.331993,168.888596 109.672417,168.982574 109.011589,168.992416 
	C99.470680,169.134415 99.470642,169.131699 98.696167,178.780197 
	C97.818069,178.849426 96.882782,178.947662 95.944969,178.989639 
	C95.141922,179.025604 94.335983,178.997086 93.265823,178.997086 
	C93.265823,163.697891 93.265823,148.660934 93.265823,133.311188 
	C98.292023,133.311188 103.342690,133.311188 108.549400,133.311188 
	C108.959030,136.257675 108.401451,140.152466 110.087639,142.005432 
	C111.576904,143.641998 115.567932,143.001984 118.980835,143.433762 
	C118.980835,148.882675 118.980835,154.474823 118.474350,160.531525 
	C111.019943,161.034668 111.019943,161.034668 110.992157,168.833740 
z"/>
<path fill="#FFE300" opacity="1.000000" stroke="none" 
	d="
M123.166214,140.992996 
	C123.116852,137.962006 123.067497,134.931030 123.496902,131.450638 
	C125.594994,131.001633 127.214317,131.002045 128.833633,131.002457 
	C131.998337,134.972061 136.376801,132.158539 140.548203,133.524719 
	C141.033737,140.984497 141.033737,140.984497 148.834381,141.003845 
	C148.834381,150.194977 148.834381,159.386124 148.834381,168.347198 
	C145.371277,168.980927 142.190887,169.562912 138.489288,170.571838 
	C131.012161,171.032227 131.012161,171.032227 130.997467,178.833603 
	C128.551865,178.833603 126.106255,178.833603 123.021111,178.833603 
	C123.021111,173.255676 123.021111,167.597839 123.528893,161.475067 
	C131.004578,160.964523 131.005524,160.964523 130.997467,153.976639 
	C130.996338,152.990173 130.980820,152.003754 130.978714,150.561432 
	C130.970184,140.203995 131.889694,141.064850 123.166214,140.992996 
z"/>
<path fill="#FFE300" opacity="1.000000" stroke="none" 
	d="
M128.833313,71.000748 
	C131.899918,71.958702 134.966522,72.916656 138.496643,74.019409 
	C138.931213,76.386948 139.537186,79.688354 140.570435,83.511520 
	C141.004959,86.357285 141.012222,88.681282 141.014893,91.441376 
	C141.004791,94.196098 140.999268,96.514732 140.993759,98.833359 
	C140.329224,100.045906 139.303528,101.197174 139.084961,102.485390 
	C138.758423,104.409904 139.000168,106.430832 139.000168,108.704643 
	C133.710190,108.704643 128.639297,108.704643 123.018532,108.704643 
	C123.018532,96.452133 123.018532,84.189583 123.497269,71.463547 
	C125.595116,71.000290 127.214211,71.000519 128.833313,71.000748 
z"/>
<path fill="#B8D864" opacity="1.000000" stroke="none" 
	d="
M53.167652,171.007141 
	C53.167652,138.548401 53.167652,106.089661 53.167652,73.317665 
	C54.984760,73.317665 56.710365,73.317665 58.977707,73.317665 
	C58.977707,105.547890 58.977707,137.813446 58.500557,170.541901 
	C56.404823,171.005569 54.786236,171.006363 53.167652,171.007141 
z"/>
<path fill="#67CAEE" opacity="1.000000" stroke="none" 
	d="
M109.000000,78.124557 
	C109.000000,88.552765 109.000000,98.492462 109.000000,108.714966 
	C103.650185,108.714966 98.598381,108.714966 93.271019,108.714966 
	C93.271019,96.971863 93.271019,85.267830 93.271019,73.280899 
	C98.354256,73.280899 103.406441,73.280899 108.797852,73.280899 
	C108.866249,74.754433 108.933128,76.195244 109.000000,78.124557 
z"/>
<path fill="#96D2A6" opacity="1.000000" stroke="none" 
	d="
M93.168922,60.997322 
	C91.467255,60.331551 89.771347,59.105492 88.063004,59.087894 
	C73.253853,58.935379 58.442459,59.000015 43.229343,59.000015 
	C43.142666,57.025078 43.066814,55.296780 42.966015,53.000004 
	C48.874413,53.000004 54.489418,53.000008 60.104424,53.000008 
	C65.936913,53.000008 71.769394,53.000008 77.601883,53.000008 
	C83.267723,53.000008 88.950478,52.728394 94.594452,53.079643 
	C99.795731,53.403336 104.956772,53.378525 110.565979,53.497589 
	C110.995392,55.594620 110.995026,57.215431 110.994659,58.836243 
	C108.309006,58.496635 105.609482,57.838165 102.943649,57.954144 
	C101.642815,58.010738 100.404785,59.510952 98.580414,60.677986 
	C96.404648,60.997948 94.786781,60.997635 93.168922,60.997322 
z"/>
<path fill="#C3D95F" opacity="1.000000" stroke="none" 
	d="
M110.997536,188.833725 
	C91.853180,188.833725 72.708824,188.833725 53.022026,188.833725 
	C53.022026,186.434738 53.022026,184.164627 53.499359,181.446533 
	C55.595196,180.998367 57.213699,180.998169 58.832199,180.997986 
	C59.375217,181.656387 59.909229,182.878693 60.462624,182.887543 
	C67.389656,182.998184 74.319839,182.958069 81.247910,182.862473 
	C81.763351,182.855377 82.268845,182.127350 83.377419,181.366821 
	C85.595032,180.998947 87.214195,180.998718 88.833351,180.998489 
	C90.025253,181.665558 91.198364,182.866409 92.412247,182.909164 
	C98.309425,183.116821 104.217529,183.014191 110.560089,183.498520 
	C110.998123,185.594971 110.997826,187.214355 110.997536,188.833725 
z"/>
<path fill="#ABD586" opacity="1.000000" stroke="none" 
	d="
M89.000000,100.932808 
	C89.000000,103.727226 89.000000,106.032799 89.000000,108.759109 
	C87.055244,108.853111 85.333473,108.936333 83.295273,109.034851 
	C83.295273,97.072609 83.295273,85.365562 83.295273,73.225166 
	C84.947731,73.146423 86.672050,73.064262 89.000000,72.953331 
	C89.000000,82.295212 89.000000,91.369591 89.000000,100.932808 
z"/>
<path fill="#ABD586" opacity="1.000000" stroke="none" 
	d="
M89.000000,144.023682 
	C89.000000,152.465744 89.000000,160.410767 89.000000,168.763290 
	C87.039192,168.854797 85.315521,168.935242 83.288818,169.029816 
	C83.288818,157.057877 83.288818,145.352951 83.288818,133.223022 
	C84.961296,133.145111 86.684959,133.064804 89.000000,132.956940 
	C89.000000,136.660797 89.000000,140.093719 89.000000,144.023682 
z"/>
<path fill="#91D1A1" opacity="1.000000" stroke="none" 
	d="
M113.000023,89.083084 
	C113.000031,86.968987 113.000031,85.331375 113.000031,83.246941 
	C114.917671,83.148407 116.638268,83.059998 118.686302,82.954765 
	C118.686302,88.219948 118.686302,93.268463 118.686302,98.770569 
	C117.069962,98.851891 115.349350,98.938461 113.000015,99.056656 
	C113.000015,95.729843 113.000015,92.644707 113.000023,89.083084 
z"/>
<path fill="#C8D95A" opacity="1.000000" stroke="none" 
	d="
M89.000000,120.999367 
	C88.999100,123.773422 88.999100,126.069580 88.999100,128.763412 
	C87.038231,128.855011 85.319786,128.935287 83.290184,129.030106 
	C83.290184,123.720528 83.290184,118.670845 83.290184,113.215286 
	C84.975220,113.139732 86.696159,113.062576 89.000908,112.959236 
	C89.000908,115.664871 89.000908,118.093170 89.000000,120.999367 
z"/>
<path fill="#EEE110" opacity="1.000000" stroke="none" 
	d="
M123.092941,141.442596 
	C131.889694,141.064850 130.970184,140.203995 130.545410,150.555908 
	C127.792435,151.002914 125.479530,150.999557 123.166626,150.996201 
	C123.117645,147.961533 123.068657,144.926865 123.092941,141.442596 
z"/>
<path fill="#E6E01C" opacity="1.000000" stroke="none" 
	d="
M123.093437,151.446106 
	C125.479530,150.999557 127.792435,151.002914 130.538666,151.011780 
	C130.980820,152.003754 130.996338,152.990173 130.997467,153.976639 
	C131.005524,160.964523 131.004578,160.964523 123.602333,161.012970 
	C123.118744,157.975876 123.069504,154.935944 123.093437,151.446106 
z"/>
<path fill="#FEE303" opacity="1.000000" stroke="none" 
	d="
M128.907394,70.553482 
	C127.214211,71.000519 125.595116,71.000290 123.571411,71.000099 
	C122.333099,70.329002 121.499390,69.657867 120.332779,68.497818 
	C119.986046,66.634140 119.972214,65.259384 119.958389,63.884628 
	C122.710205,63.470436 125.462029,63.056240 128.981476,62.526505 
	C128.981476,65.418785 128.981476,67.762497 128.907394,70.553482 
z"/>
<path fill="#F9E20F" opacity="1.000000" stroke="none" 
	d="
M128.907349,130.554688 
	C127.214317,131.002045 125.594994,131.001633 123.571030,131.001831 
	C122.360130,130.328888 121.553894,129.655350 120.372803,128.503021 
	C119.998566,126.405052 119.999184,124.785873 119.999794,123.166695 
	C122.871902,123.166695 125.744011,123.166695 128.981064,123.166695 
	C128.981064,125.651283 128.981064,127.879112 128.907349,130.554688 
z"/>
<path fill="#76CDCD" opacity="1.000000" stroke="none" 
	d="
M111.439232,168.906250 
	C111.019943,161.034668 111.019943,161.034668 118.400803,160.994110 
	C118.833740,163.412842 118.833740,165.833527 118.833740,168.978760 
	C116.570305,168.978760 114.228310,168.978760 111.439232,168.906250 
z"/>
<path fill="#F5E112" opacity="1.000000" stroke="none" 
	d="
M148.908081,140.556732 
	C141.033737,140.984497 141.033737,140.984497 140.997253,133.598465 
	C143.419266,133.165619 145.842407,133.165619 148.981796,133.165619 
	C148.981796,135.420410 148.981796,137.765015 148.908081,140.556732 
z"/>
<path fill="#F9E20B" opacity="1.000000" stroke="none" 
	d="
M131.444519,178.907318 
	C131.012161,171.032227 131.012161,171.032227 138.400848,170.998108 
	C138.833603,173.420273 138.833603,175.843124 138.833603,178.981018 
	C136.580200,178.981018 134.235886,178.981018 131.444519,178.907318 
z"/>
<path fill="#F2E119" opacity="1.000000" stroke="none" 
	d="
M141.441010,98.906868 
	C140.999268,96.514732 141.004791,94.196098 141.449158,91.439697 
	C144.203110,91.001076 146.518234,91.000229 148.833344,90.999382 
	C148.833344,93.421623 148.833344,95.843872 148.833344,98.980377 
	C146.577103,98.980377 144.232666,98.980377 141.441010,98.906868 
z"/>
<path fill="#F5E114" opacity="1.000000" stroke="none" 
	d="
M148.906830,90.552521 
	C146.518234,91.000229 144.203110,91.001076 141.453735,91.003601 
	C141.012222,88.681282 141.004959,86.357285 140.996521,83.599884 
	C143.417633,83.166489 145.839935,83.166489 148.980316,83.166489 
	C148.980316,85.419495 148.980316,87.762573 148.906830,90.552521 
z"/>
<path fill="#C9DB49" opacity="1.000000" stroke="none" 
	d="
M58.904266,180.548935 
	C57.213699,180.998169 55.595196,180.998367 53.572243,180.998276 
	C53.119747,177.966888 53.071693,174.935806 53.095646,171.455933 
	C54.786236,171.006363 56.404823,171.005569 58.427879,171.006012 
	C58.880341,174.038116 58.928337,177.069000 58.904266,180.548935 
z"/>
<path fill="#F9E207" opacity="1.000000" stroke="none" 
	d="
M119.697845,123.023911 
	C119.999184,124.785873 119.998566,126.405052 119.996948,128.428848 
	C117.901314,128.833466 115.806671,128.833466 113.018776,128.833466 
	C113.018776,126.577644 113.018776,124.233826 113.497238,121.444290 
	C115.594971,120.998146 117.214226,120.997719 118.833488,120.997292 
	C119.020958,121.625237 119.208427,122.253189 119.697845,123.023911 
z"/>
<path fill="#CCDA53" opacity="1.000000" stroke="none" 
	d="
M88.905838,180.552872 
	C87.214195,180.998718 85.595032,180.998947 83.571266,180.998825 
	C83.166656,178.528793 83.166656,176.059113 83.166656,173.296417 
	C84.988274,173.296417 86.721306,173.296417 88.978317,173.296417 
	C88.978317,175.562164 88.978317,177.834717 88.905838,180.552872 
z"/>
<path fill="#B1D67E" opacity="1.000000" stroke="none" 
	d="
M158.832901,151.004913 
	C158.832901,153.472839 158.832901,155.940750 158.832901,158.701447 
	C157.018448,158.701447 155.288406,158.701447 153.022781,158.701447 
	C153.022781,156.436279 153.022781,154.165878 153.499481,151.449402 
	C155.595093,151.003860 157.214005,151.004395 158.832901,151.004913 
z"/>
<path fill="#9FD39B" opacity="1.000000" stroke="none" 
	d="
M93.097168,61.443100 
	C94.786781,60.997635 96.404648,60.997948 98.426796,60.997803 
	C98.831085,63.465595 98.831085,65.933846 98.831085,68.697594 
	C97.010429,68.697594 95.279640,68.697594 93.025406,68.697594 
	C93.025406,66.431503 93.025406,64.160194 93.097168,61.443100 
z"/>
<path fill="#AAD588" opacity="1.000000" stroke="none" 
	d="
M158.905182,150.558838 
	C157.214005,151.004395 155.595093,151.003860 153.571655,151.004120 
	C153.167099,148.535034 153.167099,146.065140 153.167099,143.299500 
	C154.980911,143.299500 156.712204,143.299500 158.977478,143.299500 
	C158.977478,145.567169 158.977478,147.839951 158.905182,150.558838 
z"/>
<path fill="#8ACFB9" opacity="1.000000" stroke="none" 
	d="
M111.441147,58.909054 
	C110.995026,57.215431 110.995392,55.594620 110.995209,53.568783 
	C113.467796,53.163757 115.940941,53.163757 118.707153,53.163757 
	C118.707153,54.986446 118.707153,56.722046 118.707153,58.981865 
	C116.438889,58.981865 114.163261,58.981865 111.441147,58.909054 
z"/>
<path fill="#A7D490" opacity="1.000000" stroke="none" 
	d="
M93.168907,121.000343 
	C93.168907,118.532776 93.168907,116.065208 93.168907,113.302284 
	C94.982185,113.302284 96.711739,113.302284 98.974571,113.302284 
	C98.974571,115.567871 98.974571,117.838585 98.498543,120.554787 
	C96.404648,121.000305 94.786774,121.000328 93.168907,121.000343 
z"/>
<path fill="#FFE300" opacity="1.000000" stroke="none" 
	d="
M118.907440,120.551315 
	C117.214226,120.997719 115.594971,120.998146 113.571068,120.997925 
	C113.166428,118.565300 113.166428,116.133316 113.166428,113.351089 
	C114.937271,113.351089 116.759026,113.351089 118.981392,113.351089 
	C118.981392,115.632187 118.981392,117.868767 118.907440,120.551315 
z"/>
<path fill="#99D2A2" opacity="1.000000" stroke="none" 
	d="
M93.095642,121.445808 
	C94.786774,121.000328 96.404648,121.000305 98.426804,121.000313 
	C98.831093,123.469391 98.831093,125.938431 98.831093,128.701981 
	C97.011208,128.701981 95.279022,128.701981 93.022385,128.701981 
	C93.022385,126.435478 93.022385,124.163376 93.095642,121.445808 
z"/>
<path fill="#B9D773" opacity="1.000000" stroke="none" 
	d="
M111.443428,188.905823 
	C110.997826,187.214355 110.998123,185.594971 110.997971,183.570938 
	C113.467285,183.166275 115.937035,183.166275 118.701630,183.166275 
	C118.701630,184.980865 118.701630,186.712433 118.701630,188.977936 
	C116.434578,188.977936 114.161949,188.977936 111.443428,188.905823 
z"/>
<path fill="#FFE300" opacity="1.000000" stroke="none" 
	d="
M119.567444,63.782181 
	C119.972214,65.259384 119.986046,66.634140 119.999954,68.421158 
	C117.868736,68.833412 115.737442,68.833412 113.303833,68.833412 
	C113.303833,67.075462 113.303833,65.342155 113.303833,62.877151 
	C115.237068,63.141354 117.206787,63.410542 119.567444,63.782181 
z"/>
<path fill="#DFDE2C" opacity="1.000000" stroke="none" 
	d="
M57.803978,63.058842 
	C58.596355,64.806412 58.934498,66.510010 59.382511,68.767159 
	C57.187672,68.871422 55.461262,68.953430 53.219692,69.059914 
	C53.130581,67.170418 53.048965,65.439781 52.946476,63.266624 
	C54.525162,63.176361 55.937450,63.095612 57.803978,63.058842 
z"/>
<path fill="#99D2A2" opacity="1.000000" stroke="none" 
	d="
M128.941055,184.197098 
	C128.988052,185.937210 128.988052,187.223038 128.988052,188.752472 
	C126.930992,188.752472 125.206772,188.752472 123.240555,188.752472 
	C123.240555,186.919769 123.240555,185.195404 123.240555,182.777786 
	C125.267563,183.123795 127.080811,183.433304 128.941055,184.197098 
z"/>
<path fill="#99D2A2" opacity="1.000000" stroke="none" 
	d="
M148.570389,178.581635 
	C146.643341,178.894592 145.036560,178.894592 143.218414,178.894592 
	C143.218414,176.865768 143.218414,175.141617 143.218414,173.224304 
	C145.152481,173.224304 146.876648,173.224304 148.890671,173.224304 
	C148.890671,175.050827 148.890671,176.659744 148.570389,178.581635 
z"/>
<path fill="#DFDE2C" opacity="1.000000" stroke="none" 
	d="
M118.993134,176.903198 
	C117.302956,178.109497 115.617905,178.867386 113.253456,179.930862 
	C113.129410,177.122772 113.052910,175.391068 112.957848,173.239212 
	C115.633827,173.527222 119.371773,170.735764 118.993134,176.903198 
z"/>
<path fill="#AAD588" opacity="1.000000" stroke="none" 
	d="
M47.800987,183.061096 
	C48.593586,184.803162 48.932907,186.498550 49.386662,188.765671 
	C47.186253,188.870667 45.461445,188.952957 43.220787,189.059875 
	C43.131096,187.168625 43.049171,185.441055 42.946121,183.268097 
	C44.527626,183.176941 45.937672,183.095673 47.800987,183.061096 
z"/>
<path fill="#94D29B" opacity="1.000000" stroke="none" 
	d="
M117.799850,133.061996 
	C118.592819,134.803650 118.932892,136.497620 119.388092,138.765091 
	C117.182388,138.870514 115.456078,138.953033 113.221313,139.059860 
	C113.131386,137.167953 113.049316,135.441559 112.946037,133.268814 
	C114.528557,133.177307 115.937752,133.095825 117.799850,133.061996 
z"/>
<path fill="#C9DB49" opacity="1.000000" stroke="none" 
	d="
M113.429718,103.418472 
	C115.356697,103.105522 116.963402,103.105522 118.781509,103.105522 
	C118.781509,105.134361 118.781509,106.858574 118.781509,108.775620 
	C116.847504,108.775620 115.123398,108.775620 113.109436,108.775620 
	C113.109436,106.949142 113.109436,105.340286 113.429718,103.418472 
z"/>
<path fill="#D4DC40" opacity="1.000000" stroke="none" 
	d="
M107.804138,113.057587 
	C108.596603,114.801514 108.934853,116.500443 109.386429,118.768555 
	C107.185036,118.873306 105.454369,118.955666 103.218132,119.062073 
	C103.128891,117.173660 103.047226,115.445503 102.944199,113.265259 
	C104.524986,113.174599 105.937454,113.093590 107.804138,113.057587 
z"/>
<path fill="#DEDD39" opacity="1.000000" stroke="none" 
	d="
M126.902603,113.008728 
	C128.108170,114.697838 128.865631,116.381828 129.928497,118.744835 
	C127.122086,118.868805 125.391449,118.945251 123.240883,119.040245 
	C123.528908,116.366066 120.738907,112.630333 126.902603,113.008728 
z"/>
<path fill="#8ED0B5" opacity="1.000000" stroke="none" 
	d="
M133.428955,113.417740 
	C135.360703,113.104713 136.972092,113.104713 138.781281,113.104713 
	C138.781281,115.134109 138.781281,116.858833 138.781281,118.775421 
	C136.847778,118.775421 135.123154,118.775421 133.108597,118.775421 
	C133.108597,116.949463 133.108597,115.340111 133.428955,113.417740 
z"/>
<path fill="#BAD86C" opacity="1.000000" stroke="none" 
	d="
M107.799774,128.936707 
	C106.058044,128.984177 104.769791,128.984177 103.251419,128.984177 
	C103.251419,126.929382 103.251419,125.208069 103.251419,123.244469 
	C105.085114,123.244469 106.806686,123.244469 109.218346,123.244469 
	C108.872185,125.269127 108.562714,127.079185 107.799774,128.936707 
z"/>
<path fill="#C8DA58" opacity="1.000000" stroke="none" 
	d="
M136.002594,128.999619 
	C134.392593,127.428368 133.239502,125.857071 131.365158,123.302933 
	C134.954086,123.302933 136.679703,123.302933 138.829391,123.302933 
	C138.259827,125.335541 141.227783,128.479736 136.002594,128.999619 
z"/>
<path fill="#B9D773" opacity="1.000000" stroke="none" 
	d="
M143.430893,73.419609 
	C145.357010,73.106812 146.962982,73.106812 148.780365,73.106812 
	C148.780365,75.134781 148.780365,76.858208 148.780365,78.774445 
	C146.847092,78.774445 145.123764,78.774445 143.110748,78.774445 
	C143.110748,76.948669 143.110748,75.340538 143.430893,73.419609 
z"/>
<path fill="#C1D956" opacity="1.000000" stroke="none" 
	d="
M115.099350,78.991898 
	C113.901352,77.318405 113.150536,75.650826 112.072296,73.256050 
	C114.880127,73.131752 116.606651,73.055328 118.746902,72.960587 
	C118.486931,75.647362 121.243126,79.361244 115.099350,78.991898 
z"/>
<path fill="#84CFC0" opacity="1.000000" stroke="none" 
	d="
M103.062241,177.801361 
	C103.016190,176.062622 103.016190,174.777863 103.016190,173.250854 
	C105.069801,173.250854 106.792648,173.250854 108.756134,173.250854 
	C108.756134,175.080994 108.756134,176.803986 108.756134,179.217346 
	C106.732231,178.872604 104.920258,178.563965 103.062241,177.801361 
z"/>
<path fill="#A3D493" opacity="1.000000" stroke="none" 
	d="
M148.992126,105.099762 
	C149.570145,110.734123 145.910309,108.596573 143.273407,108.978050 
	C143.273407,106.978401 143.273407,105.254051 143.273407,102.350815 
	C145.428421,103.219009 147.207397,103.935707 148.992126,105.099762 
z"/>
<path fill="#C2D965" opacity="1.000000" stroke="none" 
	d="
M138.940094,64.197540 
	C138.986740,65.937271 138.986740,67.222809 138.986740,68.751465 
	C136.930786,68.751465 135.206924,68.751465 133.241547,68.751465 
	C133.241547,66.919563 133.241547,65.195572 133.241547,62.779316 
	C135.267593,63.124893 137.080505,63.434124 138.940094,64.197540 
z"/>
<path fill="#CCDA53" opacity="1.000000" stroke="none" 
	d="
M105.099594,68.988342 
	C103.902390,67.316025 103.152229,65.649300 102.076294,63.258755 
	C104.878250,63.134815 106.601257,63.058598 108.748878,62.963600 
	C108.477310,65.642128 111.245369,69.361267 105.099594,68.988342 
z"/>
<path fill="#C8DA58" opacity="1.000000" stroke="none" 
	d="
M83.002022,66.002594 
	C84.557648,64.404327 86.113319,63.262672 88.695465,61.367718 
	C88.695465,64.954765 88.695465,66.679268 88.695465,68.827438 
	C86.663589,68.259384 83.521889,71.223930 83.002022,66.002594 
z"/>
<path fill="#FFE300" opacity="1.000000" stroke="none" 
	d="
M193.000000,156.999908 
	C193.000000,125.551605 193.000000,94.603256 193.000000,63.327660 
	C198.256714,63.327660 203.317123,63.327660 208.692871,63.327660 
	C208.692871,101.608429 208.692871,139.975998 208.692871,178.672150 
	C203.743683,178.672150 198.681534,178.672150 193.000000,178.672150 
	C193.000000,171.682816 193.000000,164.591339 193.000000,156.999908 
z"/>
<path fill="#B6D864" opacity="1.000000" stroke="none" 
	d="
M183.166641,171.003433 
	C183.166641,138.545349 183.166641,106.087280 183.166641,73.316093 
	C184.994949,73.316093 186.720490,73.316093 188.977615,73.316093 
	C188.977615,105.545891 188.977615,137.810715 188.500885,170.538696 
	C186.404968,171.002396 184.785812,171.002914 183.166641,171.003433 
z"/>
<path fill="#FFE300" opacity="1.000000" stroke="none" 
	d="
M250.943848,102.891830 
	C251.625290,102.114899 252.881271,101.349922 252.897720,100.559151 
	C253.035110,93.957489 252.970535,87.350685 252.871765,80.746849 
	C252.864075,80.231697 252.136047,79.727318 251.372437,78.621078 
	C251.002716,76.405006 251.003387,74.785789 251.004059,73.166580 
	C254.035477,73.117180 257.066895,73.067772 260.548096,73.525238 
	C261.033081,80.985123 261.033081,80.985123 268.833496,81.004303 
	C268.833496,90.195557 268.833496,99.386803 268.833496,108.345963 
	C265.370026,108.980606 262.189819,109.563332 258.487732,110.572647 
	C255.645248,111.000862 253.324722,111.002502 251.002167,111.002228 
	C251.000137,111.000305 250.998169,110.997864 250.998718,110.548584 
	C250.980789,107.696808 250.962311,105.294319 250.943848,102.891830 
z"/>
<path fill="#67CAEE" opacity="1.000000" stroke="none" 
	d="
M238.833771,81.005646 
	C238.833771,90.191597 238.833771,99.377548 238.833771,108.339859 
	C235.369156,108.977989 232.190384,109.563469 228.517853,110.574890 
	C226.404953,111.000694 224.785812,111.000557 223.166656,111.000427 
	C223.166656,98.497795 223.166656,85.995171 223.166656,73.019203 
	C225.596710,73.019203 227.847336,73.019203 230.547607,73.525536 
	C231.034241,80.982788 231.034241,80.982788 238.833771,81.005646 
z"/>
<path fill="#96D2A6" opacity="1.000000" stroke="none" 
	d="
M230.999268,58.833832 
	C230.328934,59.322712 229.658600,59.811584 228.505524,60.650627 
	C226.404694,61.000820 224.786621,61.000843 223.168549,61.000862 
	C221.468384,60.333912 219.774017,59.105648 218.067154,59.088039 
	C203.260193,58.935295 188.450974,59.000004 173.233170,59.000004 
	C173.144089,57.034481 173.065750,55.306087 172.962219,53.021725 
	C192.191940,53.021725 211.131927,53.021725 230.535553,53.498627 
	C230.999207,55.594963 230.999237,57.214397 230.999268,58.833832 
z"/>
<path fill="#AAD588" opacity="1.000000" stroke="none" 
	d="
M213.000000,92.000595 
	C213.000000,85.542686 213.000000,79.584656 213.000000,73.230598 
	C214.975449,73.142876 216.699570,73.066322 218.718842,72.976654 
	C218.718842,88.294228 218.718842,103.330597 218.718842,118.781433 
	C217.025696,118.856926 215.301529,118.933792 213.000000,119.036407 
	C213.000000,110.000916 213.000000,101.250687 213.000000,92.000595 
z"/>
<path fill="#C3D95F" opacity="1.000000" stroke="none" 
	d="
M188.833344,181.000916 
	C189.376724,181.658401 189.911102,182.878983 190.464859,182.887848 
	C197.390137,182.998596 204.318558,182.958694 211.244888,182.863434 
	C211.760468,182.856369 212.266144,182.129425 213.376007,181.369400 
	C215.594986,181.002090 217.214340,181.002533 218.833710,181.002975 
	C218.833710,183.476028 218.833710,185.949081 218.833710,188.710938 
	C207.029129,188.710938 195.296143,188.710938 183.021881,188.710938 
	C183.021881,186.433441 183.021881,184.165329 183.498886,181.448822 
	C185.595047,181.000580 187.214188,181.000748 188.833344,181.000916 
z"/>
<path fill="#AAD588" opacity="1.000000" stroke="none" 
	d="
M213.166656,170.999725 
	C213.166656,158.540787 213.166656,146.081863 213.166656,133.313263 
	C214.995102,133.313263 216.720428,133.313263 218.978180,133.313263 
	C218.978180,145.537704 218.978180,157.805038 218.501144,170.536163 
	C216.404953,170.999878 214.785812,170.999802 213.166656,170.999725 
z"/>
<path fill="#BCD869" opacity="1.000000" stroke="none" 
	d="
M231.000458,123.162590 
	C231.971512,120.057007 232.942566,116.951424 234.077026,113.323212 
	C234.954742,113.323212 236.688583,113.323212 238.715515,113.323212 
	C238.715515,118.313911 238.715515,123.381615 238.715515,128.981796 
	C236.429794,128.981796 234.163467,128.981796 231.448822,128.504425 
	C231.000488,126.405579 231.000473,124.784081 231.000458,123.162590 
z"/>
<path fill="#D5DD36" opacity="1.000000" stroke="none" 
	d="
M243.001740,93.875824 
	C243.001709,90.111732 243.001709,86.829498 243.001709,83.275986 
	C245.037659,83.275986 246.757401,83.275986 248.741394,83.275986 
	C248.741394,88.351097 248.741394,93.400650 248.741394,98.724586 
	C246.952271,98.724586 245.233627,98.724586 243.219620,98.724586 
	C243.146027,97.249146 243.073914,95.803413 243.001740,93.875824 
z"/>
<path fill="#EDE113" opacity="1.000000" stroke="none" 
	d="
M250.497910,102.939468 
	C250.962311,105.294319 250.980789,107.696808 250.562439,110.549377 
	C247.805893,111.001869 245.486130,111.004288 243.166382,111.006699 
	C243.166382,108.471794 243.166382,105.936874 243.166382,102.987106 
	C245.622879,102.987106 247.837418,102.987106 250.497910,102.939468 
z"/>
<path fill="#FFE300" opacity="1.000000" stroke="none" 
	d="
M243.092407,111.453293 
	C245.486130,111.004288 247.805893,111.001869 250.561905,110.998657 
	C250.998169,110.997864 251.000137,111.000305 251.000763,111.438141 
	C251.000488,114.194611 250.999603,116.513252 250.998703,118.831894 
	C248.577072,118.831894 246.155457,118.831894 243.018448,118.831894 
	C243.018448,116.584976 243.018448,114.242439 243.092407,111.453293 
z"/>
<path fill="#FEE303" opacity="1.000000" stroke="none" 
	d="
M251.445679,118.905670 
	C250.999603,116.513252 251.000488,114.194611 251.002777,111.440056 
	C253.324722,111.002502 255.645248,111.000862 258.398865,110.998955 
	C258.831909,113.420975 258.831909,115.843262 258.831909,118.979439 
	C256.580200,118.979439 254.236420,118.979439 251.445679,118.905670 
z"/>
<path fill="#71CCD8" opacity="1.000000" stroke="none" 
	d="
M238.906509,80.558624 
	C231.034241,80.982788 231.034241,80.982788 230.995758,73.599045 
	C233.415146,73.166229 235.836014,73.166229 238.979248,73.166229 
	C238.979248,75.427155 238.979248,77.769371 238.906509,80.558624 
z"/>
<path fill="#F5E112" opacity="1.000000" stroke="none" 
	d="
M268.907104,80.557182 
	C261.033081,80.985123 261.033081,80.985123 260.996887,73.599304 
	C263.418579,73.166512 265.841248,73.166512 268.980682,73.166512 
	C268.980682,75.421402 268.980682,77.765732 268.907104,80.557182 
z"/>
<path fill="#BAD86C" opacity="1.000000" stroke="none" 
	d="
M213.094376,171.449203 
	C214.785812,170.999802 216.404953,170.999878 218.428711,170.999847 
	C218.881531,174.034332 218.929733,177.068954 218.905823,180.553268 
	C217.214340,181.002533 215.594986,181.002090 213.570953,181.002289 
	C213.118225,177.968170 213.070160,174.933426 213.094376,171.449203 
z"/>
<path fill="#C9DB49" opacity="1.000000" stroke="none" 
	d="
M188.905701,180.551575 
	C187.214188,181.000748 185.595047,181.000580 183.571274,181.000671 
	C183.118423,177.967896 183.070175,174.934891 183.094299,171.452652 
	C184.785812,171.002914 186.404968,171.002396 188.428741,171.002655 
	C188.881592,174.036362 188.929810,177.069290 188.905701,180.551575 
z"/>
<path fill="#F7E207" opacity="1.000000" stroke="none" 
	d="
M250.689392,73.090675 
	C251.003387,74.785789 251.002716,76.405006 251.003082,78.428848 
	C248.462601,78.833473 245.921082,78.833473 243.018738,78.833473 
	C243.018738,76.683182 243.018738,74.785103 243.504639,72.442848 
	C245.364914,71.985756 246.739288,71.972839 248.113678,71.959915 
	C248.867355,72.311539 249.621048,72.663155 250.689392,73.090675 
z"/>
<path fill="#FEE303" opacity="1.000000" stroke="none" 
	d="
M248.221985,71.563690 
	C246.739288,71.972839 245.364914,71.985756 243.578369,71.998085 
	C243.166214,69.207764 243.166214,66.418037 243.166214,63.211460 
	C244.910797,63.131512 246.637375,63.052391 249.167877,62.936428 
	C248.867996,65.883408 248.599152,68.525429 248.221985,71.563690 
z"/>
<path fill="#A3D493" opacity="1.000000" stroke="none" 
	d="
M223.096649,61.446243 
	C224.786621,61.000843 226.404694,61.000820 228.427109,61.000851 
	C228.831451,63.468369 228.831451,65.935829 228.831451,68.698563 
	C227.010117,68.698563 225.279602,68.698563 223.024734,68.698563 
	C223.024734,66.432854 223.024734,64.162239 223.096649,61.446243 
z"/>
<path fill="#70CBE2" opacity="1.000000" stroke="none" 
	d="
M223.093689,111.446152 
	C224.785812,111.000557 226.404953,111.000694 228.428726,111.000610 
	C228.833344,113.473251 228.833344,115.946098 228.833344,118.707756 
	C227.021194,118.707756 225.285675,118.707756 223.020706,118.707756 
	C223.020706,116.442856 223.020706,114.167358 223.093689,111.446152 
z"/>
<path fill="#A7D490" opacity="1.000000" stroke="none" 
	d="
M278.833252,91.003197 
	C278.833252,93.471008 278.833252,95.938820 278.833252,98.701019 
	C277.010651,98.701019 275.279388,98.701019 273.023041,98.701019 
	C273.023041,96.435684 273.023041,94.164871 273.499512,91.448135 
	C275.595062,91.002548 277.214142,91.002869 278.833252,91.003197 
z"/>
<path fill="#9FD39B" opacity="1.000000" stroke="none" 
	d="
M278.905945,90.557220 
	C277.214142,91.002869 275.595062,91.002548 273.571350,91.002716 
	C273.166748,88.532837 273.166748,86.062454 273.166748,83.297379 
	C274.988190,83.297379 276.721161,83.297379 278.978607,83.297379 
	C278.978607,85.564796 278.978607,87.838020 278.905945,90.557220 
z"/>
<path fill="#8ED0B5" opacity="1.000000" stroke="none" 
	d="
M231.445145,58.906548 
	C230.999237,57.214397 230.999207,55.594963 230.999237,53.570847 
	C233.470032,53.166168 235.940796,53.166168 238.704590,53.166168 
	C238.704590,54.979992 238.704590,56.712994 238.704590,58.979259 
	C236.438065,58.979259 234.164536,58.979259 231.445145,58.906548 
z"/>
<path fill="#C3D95F" opacity="1.000000" stroke="none" 
	d="
M230.554474,123.090874 
	C231.000473,124.784081 231.000488,126.405579 231.000458,128.432251 
	C228.529724,128.837448 226.059006,128.837448 223.294601,128.837448 
	C223.294601,127.019897 223.294601,125.287018 223.294601,123.019157 
	C225.561798,123.019157 227.835159,123.019157 230.554474,123.090874 
z"/>
<path fill="#A7D490" opacity="1.000000" stroke="none" 
	d="
M223.001862,186.002594 
	C224.571609,184.394043 226.141388,183.241898 228.694962,181.367706 
	C228.694962,184.955261 228.694962,186.678940 228.694962,188.825317 
	C226.660812,188.264160 223.523392,191.218597 223.001862,186.002594 
z"/>
<path fill="#ABD586" opacity="1.000000" stroke="none" 
	d="
M178.580551,183.430695 
	C178.893402,185.356934 178.893402,186.963028 178.893402,188.780975 
	C176.865326,188.780975 175.141785,188.780975 173.224915,188.780975 
	C173.224915,186.846283 173.224915,185.122711 173.224915,183.110535 
	C175.051239,183.110535 176.659470,183.110535 178.580551,183.430695 
z"/>
<path fill="#9FD39B" opacity="1.000000" stroke="none" 
	d="
M263.429596,113.418350 
	C265.356659,113.105400 266.963440,113.105400 268.781555,113.105400 
	C268.781555,115.134315 268.781555,116.858604 268.781555,118.775673 
	C266.847534,118.775673 265.123352,118.775673 263.109314,118.775673 
	C263.109314,116.949173 263.109314,115.340240 263.429596,113.418350 
z"/>
<path fill="#DEDD39" opacity="1.000000" stroke="none" 
	d="
M215.095901,128.995392 
	C213.894821,127.317673 213.142593,125.645020 212.066101,123.251358 
	C214.876190,123.127205 216.609573,123.050621 218.763931,122.955437 
	C218.473480,125.632500 221.269455,129.374969 215.095901,128.995392 
z"/>
<path fill="#A7D490" opacity="1.000000" stroke="none" 
	d="
M248.939285,124.198349 
	C248.986420,125.937286 248.986420,127.222252 248.986420,128.750870 
	C246.930359,128.750870 245.207275,128.750870 243.242157,128.750870 
	C243.242157,126.915855 243.242157,125.192528 243.242157,122.779434 
	C245.268158,123.125450 247.080154,123.434921 248.939285,124.198349 
z"/>
<path fill="#DEDD39" opacity="1.000000" stroke="none" 
	d="
M258.587616,63.423374 
	C258.901306,65.354950 258.901306,66.965591 258.901306,68.784744 
	C256.867828,68.784744 255.139404,68.784744 253.220978,68.784744 
	C253.220978,66.849701 253.220978,65.121391 253.220978,63.102432 
	C255.048355,63.102432 256.661133,63.102432 258.587616,63.423374 
z"/>
<path fill="#DFDE2C" opacity="1.000000" stroke="none" 
	d="
M233.004150,65.095833 
	C234.682037,63.894630 236.354858,63.142284 238.749084,62.065483 
	C238.873230,64.876099 238.949814,66.609612 239.044968,68.763954 
	C236.367126,68.474350 232.624771,71.269669 233.004150,65.095833 
z"/>
<path fill="#C8D95A" opacity="1.000000" stroke="none" 
	d="
M213.428436,63.417263 
	C215.356339,63.104168 216.963821,63.104168 218.782120,63.104168 
	C218.782120,65.133926 218.782120,66.858971 218.782120,68.776268 
	C216.847946,68.776268 215.123001,68.776268 213.108047,68.776268 
	C213.108047,66.949638 213.108047,65.339996 213.428436,63.417263 
z"/>
<path fill="#DFDE2C" opacity="1.000000" stroke="none" 
	d="
M185.098450,63.009098 
	C190.742828,62.425152 188.598526,66.092827 188.972900,68.727730 
	C186.980011,68.727730 185.252838,68.727730 182.350449,68.727730 
	C183.216751,66.575722 183.933594,64.794968 185.098450,63.009098 
z"/>
<path fill="#FFE300" opacity="1.000000" stroke="none" 
	d="
M312.004211,63.166569 
	C317.473206,63.166569 322.942169,63.166569 328.704742,63.166569 
	C328.704742,101.650871 328.704742,140.036285 328.704742,178.981873 
	C323.129456,178.981873 317.529816,178.981873 311.465637,178.482758 
	C311.002045,175.710815 311.002960,173.437973 311.435181,171.076324 
	C312.244324,169.710251 312.949493,168.433655 312.952057,167.155670 
	C313.013611,136.395889 313.012604,105.635925 312.957855,74.876122 
	C312.955414,73.528000 312.336426,72.180977 312.003418,70.407776 
	C312.002899,67.710258 312.003571,65.438416 312.004211,63.166569 
z"/>
<path fill="#E3DF1F" opacity="1.000000" stroke="none" 
	d="
M303.165283,171.001053 
	C303.116974,137.974594 303.068665,104.948128 303.516785,71.459335 
	C305.709686,71.018517 307.406158,71.040031 309.057495,71.523651 
	C309.044769,104.972328 309.077179,137.958893 308.684631,170.957642 
	C306.561554,170.980255 304.863403,170.990646 303.165283,171.001053 
z"/>
<path fill="#8ACFB9" opacity="1.000000" stroke="none" 
	d="
M333.000092,123.000000 
	C333.000092,106.213409 333.000092,89.926826 333.000092,73.233543 
	C334.958923,73.143066 336.685333,73.063324 338.715942,72.969536 
	C338.715942,104.947029 338.715942,136.651779 338.715942,168.779083 
	C337.039185,168.856674 335.311462,168.936630 333.000092,169.043594 
	C333.000092,153.675461 333.000092,138.587738 333.000092,123.000000 
z"/>
<path fill="#C3D95F" opacity="1.000000" stroke="none" 
	d="
M301.002747,183.166626 
	C309.927856,183.111069 318.854187,183.118179 327.776978,182.944229 
	C329.451752,182.911575 331.112427,182.155624 333.377502,181.365662 
	C335.594940,180.997482 337.214447,180.997070 338.833984,180.996643 
	C339.859497,181.662369 340.876617,182.890778 341.911835,182.906204 
	C351.520782,183.049454 361.133118,183.008926 370.743622,182.925400 
	C371.424744,182.919479 372.099213,182.151169 373.376312,181.369461 
	C375.595001,181.002045 377.214203,181.002518 378.833374,181.003006 
	C381.999878,184.962570 386.377747,182.162186 390.549561,183.498932 
	C390.999023,185.595047 390.998718,187.214188 390.998383,188.833344 
	C361.308838,188.881714 331.619293,188.930069 301.465576,188.501282 
	C301.001862,186.404968 301.002289,184.785812 301.002747,183.166626 
z"/>
<path fill="#96D2A6" opacity="1.000000" stroke="none" 
	d="
M293.169037,61.001945 
	C292.511505,60.560005 291.853973,60.118065 291.084595,58.962563 
	C290.980957,56.554882 290.989166,54.860764 290.997406,53.166649 
	C310.131195,53.166649 329.264984,53.166649 348.697693,53.166649 
	C348.697693,55.011948 348.697693,56.738537 348.697693,58.999996 
	C338.593811,58.999996 328.478241,58.999958 318.362701,59.000008 
	C313.030884,59.000034 307.697693,58.935921 302.368408,59.052216 
	C301.243561,59.076759 300.133118,59.762436 298.519226,60.572388 
	C296.404602,61.001507 294.786835,61.001724 293.169037,61.001945 
z"/>
<path fill="#8ED0B5" opacity="1.000000" stroke="none" 
	d="
M360.999512,178.832962 
	C355.207153,178.832962 349.414795,178.832962 343.312927,178.832962 
	C343.312927,177.029175 343.312927,175.307175 343.312927,173.022202 
	C348.878540,173.022202 354.492676,173.022202 360.553345,173.499176 
	C360.999756,175.595078 360.999634,177.214020 360.999512,178.832962 
z"/>
<path fill="#F7E207" opacity="1.000000" stroke="none" 
	d="
M309.102631,71.061546 
	C307.406158,71.040031 305.709686,71.018517 303.589874,70.995331 
	C303.166534,68.569817 303.166534,66.145966 303.166534,63.018745 
	C305.753693,63.018745 308.426758,63.018745 311.552002,63.092659 
	C312.003571,65.438416 312.002899,67.710258 311.646240,70.481644 
	C310.561066,71.007973 309.831848,71.034760 309.102631,71.061546 
z"/>
<path fill="#EEE110" opacity="1.000000" stroke="none" 
	d="
M303.091553,171.448013 
	C304.863403,170.990646 306.561554,170.980255 309.002869,170.981964 
	C310.165344,171.051117 310.584625,171.108139 311.003906,171.165146 
	C311.002960,173.437973 311.002045,175.710815 311.002869,178.409241 
	C308.582550,178.834854 306.160492,178.834854 303.017792,178.834854 
	C303.017792,176.580536 303.017792,174.237762 303.091553,171.448013 
z"/>
<path fill="#F5E114" opacity="1.000000" stroke="none" 
	d="
M398.831879,170.997711 
	C398.831879,173.418991 398.831879,175.840271 398.831879,178.978683 
	C396.578308,178.978683 394.235809,178.978683 391.446533,178.501129 
	C390.999695,176.404861 390.999664,174.786118 390.999634,173.167389 
	C391.639771,172.637787 392.279907,172.108200 393.448486,171.288696 
	C395.595245,170.998444 397.213562,170.998077 398.831879,170.997711 
z"/>
<path fill="#8ACFB9" opacity="1.000000" stroke="none" 
	d="
M293.097107,61.447395 
	C294.786835,61.001724 296.404602,61.001507 298.426697,61.001625 
	C298.830963,63.469906 298.830963,65.937843 298.830963,68.699417 
	C297.010620,68.699417 295.279388,68.699417 293.025177,68.699417 
	C293.025177,66.434822 293.025177,64.163834 293.097107,61.447395 
z"/>
<path fill="#FEE303" opacity="1.000000" stroke="none" 
	d="
M398.906433,170.551758 
	C397.213562,170.998077 395.595245,170.998444 393.572510,170.998230 
	C393.168121,168.565948 393.168121,166.134232 393.168121,163.351959 
	C394.937347,163.351959 396.758820,163.351959 398.980957,163.351959 
	C398.980957,165.632996 398.980957,167.869400 398.906433,170.551758 
z"/>
<path fill="#CCDA53" opacity="1.000000" stroke="none" 
	d="
M338.906555,180.551193 
	C337.214447,180.997070 335.594940,180.997482 333.570709,180.997253 
	C333.166016,178.526978 333.166016,176.057343 333.166016,173.295105 
	C334.980499,173.295105 336.712982,173.295105 338.979156,173.295105 
	C338.979156,175.560760 338.979156,177.833252 338.906555,180.551193 
z"/>
<path fill="#F9E207" opacity="1.000000" stroke="none" 
	d="
M390.553589,173.092834 
	C390.999664,174.786118 390.999695,176.404861 390.999695,178.428101 
	C388.567871,178.832611 386.136139,178.832611 383.352173,178.832611 
	C383.352173,177.062469 383.352173,175.241226 383.352173,173.018295 
	C385.634399,173.018295 387.870972,173.018295 390.553589,173.092834 
z"/>
<path fill="#B6D76F" opacity="1.000000" stroke="none" 
	d="
M378.905457,180.557220 
	C377.214203,181.002518 375.595001,181.002045 373.571228,181.002289 
	C373.166626,178.533417 373.166626,176.063797 373.166626,173.299744 
	C374.989136,173.299744 376.720703,173.299744 378.977539,173.299744 
	C378.977539,175.567307 378.977539,177.839371 378.905457,180.557220 
z"/>
<path fill="#92D1AD" opacity="1.000000" stroke="none" 
	d="
M361.445129,178.905533 
	C360.999634,177.214020 360.999756,175.595078 360.999695,173.571594 
	C363.469269,173.167038 365.938995,173.167038 368.702637,173.167038 
	C368.702637,174.988510 368.702637,176.721252 368.702637,178.978104 
	C366.436127,178.978104 364.163452,178.978104 361.445129,178.905533 
z"/>
<path fill="#84CFC0" opacity="1.000000" stroke="none" 
	d="
M290.551849,53.094070 
	C290.989166,54.860764 290.980957,56.554882 290.957672,58.672035 
	C288.480377,59.095070 286.018188,59.095070 283.280731,59.095070 
	C283.280731,56.990406 283.280731,55.259880 283.280731,53.021496 
	C285.571259,53.021496 287.838776,53.021496 290.551849,53.094070 
z"/>
<path fill="#B1D67E" opacity="1.000000" stroke="none" 
	d="
M391.444122,188.905548 
	C390.998718,187.214188 390.999023,185.595047 390.998871,183.571274 
	C393.468201,183.166656 395.937988,183.166656 398.701294,183.166656 
	C398.701294,184.988876 398.701294,186.720886 398.701294,188.977768 
	C396.434296,188.977768 394.162079,188.977768 391.444122,188.905548 
z"/>
<path fill="#B2D678" opacity="1.000000" stroke="none" 
	d="
M300.556946,183.094543 
	C301.002289,184.785812 301.001862,186.404968 301.002075,188.428741 
	C298.533691,188.833359 296.064606,188.833359 293.299561,188.833359 
	C293.299561,187.010925 293.299561,185.279312 293.299561,183.022430 
	C295.566986,183.022430 297.839081,183.022430 300.556946,183.094543 
z"/>
<path fill="#8ACFB9" opacity="1.000000" stroke="none" 
	d="
M283.007751,185.098190 
	C284.682434,183.899277 286.351624,183.148102 288.745148,182.070953 
	C288.869232,184.878799 288.945648,186.607727 289.040497,188.753677 
	C286.359589,188.479111 282.633453,191.254013 283.007751,185.098190 
z"/>
<path fill="#D4DC40" opacity="1.000000" stroke="none" 
	d="
M398.569824,158.581085 
	C396.643158,158.893936 395.036713,158.893936 393.220367,158.893936 
	C393.220367,156.865540 393.220367,155.141724 393.220367,153.226242 
	C395.152618,153.226242 396.876465,153.226242 398.890076,153.226242 
	C398.890076,155.050995 398.890076,156.659607 398.569824,158.581085 
z"/>
<path fill="#C2D965" opacity="1.000000" stroke="none" 
	d="
M338.992371,66.901596 
	C337.317871,68.100327 335.648987,68.851440 333.255096,69.928864 
	C333.130890,67.120926 333.054443,65.392509 332.959595,63.247890 
	C335.642181,63.518700 339.365479,60.748371 338.992371,66.901596 
z"/>
<path fill="#98D395" opacity="1.000000" stroke="none" 
	d="
M396.899292,148.991608 
	C391.272186,149.566360 393.404633,145.912277 393.021149,143.274979 
	C395.022736,143.274979 396.745056,143.274979 399.647522,143.274979 
	C398.778809,145.430634 398.062500,147.208084 396.899292,148.991608 
z"/>
<path fill="#91D1A1" opacity="1.000000" stroke="none" 
	d="
M384.200195,163.062439 
	C385.937347,163.014236 387.221100,163.014236 388.749603,163.014236 
	C388.749603,165.070587 388.749603,166.791962 388.749603,168.756531 
	C386.914886,168.756531 385.193268,168.756531 382.779694,168.756531 
	C383.126709,166.730545 383.436737,164.920593 384.200195,163.062439 
z"/>
<path fill="#000000" opacity="1.000000" stroke="none" 
	d="
M311.435181,171.076324 
	C310.584625,171.108139 310.165344,171.051117 309.427826,170.969772 
	C309.077179,137.958893 309.044769,104.972328 309.057495,71.523651 
	C309.831848,71.034760 310.561066,71.007973 311.647461,70.907318 
	C312.336426,72.180977 312.955414,73.528000 312.957855,74.876122 
	C313.012604,105.635925 313.013611,136.395889 312.952057,167.155670 
	C312.949493,168.433655 312.244324,169.710251 311.435181,171.076324 
z"/>
</svg>